<svg width="24" height="24" viewBox="0 0 24 24" fill="none" xmlns="http://www.w3.org/2000/svg">
<path d="M11.978 22.2295C11.8563 22.2295 11.7318 22.2267 11.6045 22.2212C11.4772 22.2212 11.3527 22.2157 11.231 22.2046L10.6748 23.2505C10.5863 23.3999 10.4756 23.5106 10.3428 23.5825C10.2155 23.6545 10.0688 23.6738 9.90283 23.6406C9.73682 23.6074 9.60124 23.5355 9.49609 23.4248C9.39095 23.3197 9.32454 23.1813 9.29688 23.0098L9.13086 21.8394C8.8929 21.7729 8.65495 21.6955 8.41699 21.6069C8.18457 21.5239 7.95768 21.4299 7.73633 21.3247L6.84814 22.1133C6.72087 22.2295 6.58252 22.2959 6.43311 22.3125C6.28923 22.3346 6.13981 22.3042 5.98486 22.2212C5.84098 22.1326 5.73861 22.0192 5.67773 21.8809C5.6224 21.7425 5.61133 21.5876 5.64453 21.416L5.88525 20.2622C5.68604 20.1183 5.48958 19.9661 5.2959 19.8057C5.10775 19.6452 4.92513 19.4764 4.74805 19.2993L3.64404 19.7393C3.48356 19.8057 3.33138 19.8223 3.1875 19.7891C3.04362 19.7614 2.91357 19.6784 2.79736 19.54C2.69222 19.4128 2.63411 19.2744 2.62305 19.125C2.61198 18.9756 2.65348 18.8234 2.74756 18.6685L3.37842 17.6724C3.23454 17.4676 3.10173 17.2573 2.97998 17.0415C2.85824 16.8257 2.74202 16.6071 2.63135 16.3857L1.45264 16.4106C1.27555 16.4162 1.12337 16.383 0.996094 16.311C0.874349 16.2336 0.78304 16.109 0.722168 15.9375C0.666829 15.7826 0.658529 15.6331 0.697266 15.4893C0.741536 15.3398 0.832845 15.2126 0.971191 15.1074L1.90918 14.377C1.84277 14.139 1.78743 13.8983 1.74316 13.6548C1.70443 13.4058 1.67122 13.1567 1.64355 12.9077L0.514648 12.5425C0.348633 12.4871 0.221354 12.3986 0.132812 12.2769C0.0442708 12.1551 0 12.0112 0 11.8452C0 11.6737 0.0442708 11.527 0.132812 11.4053C0.221354 11.2835 0.348633 11.195 0.514648 11.1396L1.64355 10.7827C1.67122 10.5282 1.70443 10.2791 1.74316 10.0356C1.78743 9.78662 1.84277 9.5459 1.90918 9.31348L0.971191 8.57471C0.832845 8.46956 0.741536 8.34505 0.697266 8.20117C0.652995 8.05729 0.661296 7.90788 0.722168 7.75293C0.777507 7.58691 0.868815 7.4624 0.996094 7.37939C1.12337 7.29639 1.27555 7.25765 1.45264 7.26318L2.62305 7.30469C2.73372 7.08333 2.84993 6.86475 2.97168 6.64893C3.09896 6.43311 3.23454 6.22282 3.37842 6.01807L2.74756 5.01367C2.65902 4.86426 2.61751 4.71484 2.62305 4.56543C2.62858 4.41602 2.68669 4.2749 2.79736 4.14209C2.90804 4.01481 3.03532 3.9318 3.1792 3.89307C3.32861 3.85433 3.48633 3.86816 3.65234 3.93457L4.74805 4.38281C4.92513 4.21126 5.10775 4.04525 5.2959 3.88477C5.48405 3.72428 5.6805 3.57487 5.88525 3.43652L5.64453 2.26611C5.61133 2.1001 5.6224 1.94792 5.67773 1.80957C5.73307 1.66569 5.83545 1.55225 5.98486 1.46924C6.13428 1.38623 6.28369 1.35303 6.43311 1.36963C6.58805 1.3807 6.72917 1.4471 6.85645 1.56885L7.72803 2.35742C7.95492 2.25781 8.18457 2.16374 8.41699 2.0752C8.64941 1.98665 8.88737 1.90918 9.13086 1.84277L9.30518 0.672363C9.33285 0.506348 9.39648 0.368001 9.49609 0.257324C9.5957 0.141113 9.73128 0.0691732 9.90283 0.0415039C10.0688 0.0193685 10.2183 0.0415039 10.3511 0.10791C10.4839 0.168783 10.5918 0.276693 10.6748 0.431641L11.231 1.47754C11.3527 1.46647 11.4772 1.46094 11.6045 1.46094C11.7318 1.4554 11.8563 1.45264 11.978 1.45264C12.1053 1.45264 12.2298 1.4554 12.3516 1.46094C12.4733 1.46094 12.5951 1.46647 12.7168 1.47754L13.2896 0.439941C13.367 0.284993 13.4722 0.174316 13.605 0.10791C13.7378 0.0359701 13.89 0.0138346 14.0615 0.0415039C14.222 0.0802409 14.3548 0.152181 14.46 0.257324C14.5651 0.362467 14.6287 0.503581 14.6509 0.680664L14.8169 1.84277C15.0604 1.90918 15.2983 1.98665 15.5308 2.0752C15.7687 2.1582 15.9984 2.25228 16.2197 2.35742L17.1079 1.56885C17.2352 1.45817 17.3735 1.39176 17.5229 1.36963C17.6724 1.34749 17.8218 1.3807 17.9712 1.46924C18.1151 1.55778 18.2174 1.67122 18.2783 1.80957C18.3392 1.94238 18.3503 2.09733 18.3115 2.27441L18.0625 3.41992C18.2673 3.5638 18.4637 3.71598 18.6519 3.87646C18.8455 4.03695 19.0309 4.20573 19.208 4.38281L20.312 3.94287C20.4725 3.882 20.6247 3.86816 20.7686 3.90137C20.9124 3.92904 21.0425 4.00928 21.1587 4.14209C21.2583 4.2749 21.3136 4.41602 21.3247 4.56543C21.3413 4.71484 21.2998 4.86702 21.2002 5.02197L20.5776 6.00977C20.716 6.21452 20.8488 6.4248 20.9761 6.64062C21.1034 6.85645 21.2196 7.07503 21.3247 7.29639L22.5034 7.27148C22.675 7.26595 22.8244 7.30192 22.9517 7.37939C23.0789 7.45687 23.173 7.57861 23.2339 7.74463C23.2837 7.90511 23.2892 8.06006 23.2505 8.20947C23.2173 8.35335 23.1287 8.47786 22.9849 8.58301L22.0552 9.30518C22.116 9.54313 22.1686 9.78662 22.2129 10.0356C22.2572 10.2791 22.2931 10.5282 22.3208 10.7827L23.4414 11.1396C23.6074 11.195 23.7347 11.2835 23.8232 11.4053C23.9118 11.527 23.9561 11.6737 23.9561 11.8452C23.9561 12.0112 23.9118 12.1551 23.8232 12.2769C23.7347 12.3986 23.6074 12.4871 23.4414 12.5425L22.3208 12.9077C22.2931 13.1567 22.2572 13.4058 22.2129 13.6548C22.1686 13.8983 22.116 14.139 22.0552 14.377L22.9932 15.1074C23.1315 15.2181 23.2201 15.3454 23.2588 15.4893C23.3031 15.6276 23.292 15.7743 23.2256 15.9292C23.1702 16.0952 23.0789 16.2197 22.9517 16.3027C22.8299 16.3857 22.6805 16.4245 22.5034 16.4189L21.333 16.3774C21.2223 16.5988 21.1034 16.8174 20.9761 17.0332C20.8488 17.249 20.716 17.4593 20.5776 17.6641L21.2085 18.6685C21.3026 18.8234 21.3441 18.9728 21.333 19.1167C21.3275 19.2661 21.2694 19.4072 21.1587 19.54C21.0425 19.6673 20.9124 19.7503 20.7686 19.7891C20.6247 19.8278 20.4697 19.814 20.3037 19.7476L19.208 19.3076C19.0309 19.4792 18.8483 19.6424 18.6602 19.7974C18.472 19.9578 18.2728 20.11 18.0625 20.2539L18.3115 21.416C18.3447 21.5876 18.3337 21.7425 18.2783 21.8809C18.223 22.0192 18.1178 22.1299 17.9629 22.2129C17.8135 22.2959 17.6641 22.3291 17.5146 22.3125C17.3652 22.3014 17.2269 22.2378 17.0996 22.1216L16.228 21.3247C16.0011 21.4243 15.7715 21.5184 15.5391 21.6069C15.3066 21.6955 15.0687 21.7729 14.8252 21.8394L14.6426 23.0098C14.6204 23.1813 14.5596 23.3224 14.46 23.4331C14.3604 23.5438 14.2275 23.613 14.0615 23.6406C13.89 23.6628 13.7378 23.6406 13.605 23.5742C13.4722 23.5133 13.3643 23.4054 13.2812 23.2505L12.7251 22.2046C12.5978 22.2157 12.4733 22.2212 12.3516 22.2212C12.2298 22.2267 12.1053 22.2295 11.978 22.2295ZM11.978 20.2041C13.1346 20.2041 14.2165 19.9883 15.2236 19.5566C16.2363 19.125 17.1245 18.5273 17.8882 17.7637C18.6574 16.9945 19.2578 16.1035 19.6895 15.0908C20.1266 14.0781 20.3452 12.9963 20.3452 11.8452C20.3452 10.6886 20.1266 9.60677 19.6895 8.59961C19.2578 7.58691 18.6574 6.69873 17.8882 5.93506C17.1245 5.16585 16.2363 4.56543 15.2236 4.13379C14.2165 3.69661 13.1346 3.47803 11.978 3.47803C10.827 3.47803 9.74512 3.69661 8.73242 4.13379C7.71973 4.56543 6.82878 5.16585 6.05957 5.93506C5.2959 6.69873 4.69548 7.58691 4.2583 8.59961C3.82666 9.60677 3.61084 10.6886 3.61084 11.8452C3.61084 12.9963 3.82666 14.0781 4.2583 15.0908C4.69548 16.1035 5.2959 16.9945 6.05957 17.7637C6.82878 18.5273 7.71973 19.125 8.73242 19.5566C9.74512 19.9883 10.827 20.2041 11.978 20.2041ZM9.93604 10.1021L6.4082 4.05078L7.95215 3.24561L11.4136 9.19727L9.93604 10.1021ZM14.5181 12.6836V10.9487H21.4243V12.6836H14.5181ZM11.4219 14.5015L7.83594 20.4199L6.30859 19.5898L9.97754 13.5635L11.4219 14.5015ZM11.9863 14.8086C11.4385 14.8086 10.9377 14.6758 10.4839 14.4102C10.0356 14.1445 9.67871 13.7876 9.41309 13.3394C9.14746 12.8856 9.01465 12.3875 9.01465 11.8452C9.01465 11.2974 9.14746 10.7993 9.41309 10.3511C9.67871 9.8973 10.0356 9.5376 10.4839 9.27197C10.9377 9.00635 11.4385 8.87354 11.9863 8.87354C12.5342 8.87354 13.0322 9.00635 13.4805 9.27197C13.9287 9.5376 14.2856 9.8973 14.5513 10.3511C14.8224 10.7993 14.958 11.2974 14.958 11.8452C14.958 12.3875 14.8224 12.8856 14.5513 13.3394C14.2856 13.7876 13.9287 14.1445 13.4805 14.4102C13.0322 14.6758 12.5342 14.8086 11.9863 14.8086ZM11.9863 13.1069C12.335 13.1069 12.631 12.9852 12.8745 12.7417C13.1235 12.4927 13.248 12.1938 13.248 11.8452C13.248 11.4966 13.1235 11.2005 12.8745 10.957C12.631 10.708 12.335 10.5835 11.9863 10.5835C11.6377 10.5835 11.3389 10.708 11.0898 10.957C10.8464 11.2005 10.7246 11.4966 10.7246 11.8452C10.7246 12.1938 10.8464 12.4927 11.0898 12.7417C11.3389 12.9852 11.6377 13.1069 11.9863 13.1069Z" fill="#0088FF"/>
</svg>
