<svg width="24" height="23" viewBox="0 0 24 23" fill="none" xmlns="http://www.w3.org/2000/svg">
<g style="mix-blend-mode:plus-darker">
<path d="M11.5796 21.5156C11.4468 21.5156 11.3112 21.5129 11.1729 21.5073C11.0345 21.5018 10.8989 21.4935 10.7661 21.4824L10.21 22.5366C10.138 22.6639 10.0495 22.7552 9.94434 22.8105C9.83919 22.8659 9.71468 22.8797 9.5708 22.8521C9.43245 22.8244 9.32178 22.7663 9.23877 22.6777C9.15576 22.5947 9.10319 22.4813 9.08105 22.3374L8.91504 21.167C8.64941 21.0895 8.38932 21.0037 8.13477 20.9097C7.88021 20.8211 7.63118 20.7188 7.3877 20.6025L6.49951 21.3994C6.39437 21.499 6.28092 21.5544 6.15918 21.5654C6.04297 21.5765 5.91846 21.5488 5.78564 21.4824C5.6639 21.4049 5.58089 21.3109 5.53662 21.2002C5.49235 21.0951 5.48405 20.9678 5.51172 20.8184L5.75244 19.6646C5.53109 19.5041 5.31527 19.3353 5.10498 19.1582C4.89469 18.9867 4.69548 18.804 4.50732 18.6104L3.40332 19.0586C3.27051 19.1139 3.146 19.1278 3.02979 19.1001C2.91357 19.0724 2.80566 19.0033 2.70605 18.8926C2.61751 18.7819 2.56771 18.6657 2.55664 18.5439C2.55111 18.4277 2.58708 18.3032 2.66455 18.1704L3.29541 17.1743C3.14046 16.9474 2.99382 16.7178 2.85547 16.4854C2.72266 16.2529 2.59538 16.0122 2.47363 15.7632L1.29492 15.7964C1.14551 15.8019 1.021 15.7743 0.921387 15.7134C0.827311 15.6525 0.752604 15.5501 0.697266 15.4062C0.652995 15.2734 0.647461 15.1489 0.680664 15.0327C0.713867 14.9165 0.788574 14.8141 0.904785 14.7256L1.84277 13.9951C1.77083 13.735 1.70996 13.4722 1.66016 13.2065C1.61589 12.9354 1.57992 12.6615 1.55225 12.3848L0.42334 12.0195C0.27946 11.9753 0.171549 11.9061 0.0996094 11.812C0.0332031 11.7124 0 11.5907 0 11.4468C0 11.2974 0.0332031 11.1756 0.0996094 11.0815C0.171549 10.9819 0.27946 10.91 0.42334 10.8657L1.55225 10.5088C1.57992 10.2321 1.61589 9.96094 1.66016 9.69531C1.70996 9.42415 1.77083 9.15853 1.84277 8.89844L0.904785 8.16797C0.788574 8.07943 0.7111 7.97705 0.672363 7.86084C0.63916 7.74463 0.647461 7.62012 0.697266 7.4873C0.74707 7.34896 0.821777 7.24658 0.921387 7.18018C1.02653 7.10824 1.15381 7.07503 1.30322 7.08057L2.47363 7.13037C2.59538 6.88135 2.72266 6.64062 2.85547 6.4082C2.99382 6.17025 3.14046 5.94059 3.29541 5.71924L2.66455 4.71484C2.58708 4.5931 2.55111 4.47135 2.55664 4.34961C2.56217 4.22786 2.61198 4.11165 2.70605 4.00098C2.80013 3.8903 2.90527 3.82113 3.02148 3.79346C3.14323 3.76025 3.27327 3.77132 3.41162 3.82666L4.50732 4.2749C4.70101 4.08675 4.90023 3.9069 5.10498 3.73535C5.30973 3.55827 5.52555 3.39225 5.75244 3.2373L5.50342 2.06689C5.47575 1.92855 5.48405 1.80404 5.52832 1.69336C5.57259 1.57715 5.65837 1.48307 5.78564 1.41113C5.91292 1.34473 6.03743 1.31706 6.15918 1.32812C6.28092 1.33919 6.39714 1.39453 6.50781 1.49414L7.37109 2.29102C7.62012 2.18034 7.87191 2.07796 8.12646 1.98389C8.38102 1.88428 8.64111 1.7985 8.90674 1.72656L9.08105 0.547852C9.10319 0.409505 9.15299 0.296061 9.23047 0.20752C9.31348 0.118978 9.42692 0.0608724 9.5708 0.0332031C9.71468 0.0166016 9.83919 0.0332031 9.94434 0.0830078C10.0495 0.132812 10.138 0.224121 10.21 0.356934L10.7661 1.40283C10.8989 1.39176 11.0345 1.38346 11.1729 1.37793C11.3112 1.3724 11.4468 1.36963 11.5796 1.36963C11.7179 1.36963 11.8535 1.3724 11.9863 1.37793C12.1247 1.38346 12.2603 1.39176 12.3931 1.40283L12.9575 0.356934C13.0239 0.229655 13.1097 0.138346 13.2148 0.0830078C13.3255 0.0276693 13.4528 0.0110677 13.5967 0.0332031C13.735 0.0664062 13.8457 0.124512 13.9287 0.20752C14.0117 0.290527 14.0615 0.406738 14.0781 0.556152L14.2441 1.72656C14.5098 1.7985 14.7699 1.88151 15.0244 1.97559C15.2845 2.06413 15.5363 2.1665 15.7798 2.28271L16.668 1.49414C16.7731 1.40007 16.8838 1.34473 17 1.32812C17.1217 1.31152 17.249 1.33919 17.3818 1.41113C17.5036 1.48861 17.5866 1.58268 17.6309 1.69336C17.6807 1.7985 17.689 1.92578 17.6558 2.0752L17.4067 3.2207C17.6281 3.37565 17.8439 3.54167 18.0542 3.71875C18.2645 3.8903 18.4665 4.07568 18.6602 4.2749L19.7642 3.82666C19.8914 3.77686 20.0132 3.76579 20.1294 3.79346C20.2511 3.81559 20.3618 3.88477 20.4614 4.00098C20.5444 4.11165 20.5915 4.22786 20.6025 4.34961C20.6136 4.46582 20.5776 4.58757 20.4946 4.71484L19.8721 5.71094C20.0215 5.93229 20.1654 6.16195 20.3037 6.3999C20.4421 6.63232 20.5693 6.87305 20.6855 7.12207L21.8643 7.08887C22.0081 7.08333 22.1299 7.11377 22.2295 7.18018C22.3346 7.24105 22.4149 7.34066 22.4702 7.479C22.509 7.61735 22.5145 7.74463 22.4868 7.86084C22.4591 7.97705 22.3844 8.07943 22.2627 8.16797L21.3247 8.89014C21.3966 9.15576 21.4548 9.42415 21.499 9.69531C21.5488 9.96094 21.5876 10.2321 21.6152 10.5088L22.7358 10.8657C22.8797 10.91 22.9876 10.9819 23.0596 11.0815C23.1315 11.1756 23.1675 11.2974 23.1675 11.4468C23.1675 11.5907 23.1315 11.7124 23.0596 11.812C22.9876 11.9061 22.8797 11.9753 22.7358 12.0195L21.6152 12.3848C21.5876 12.6615 21.5488 12.9354 21.499 13.2065C21.4548 13.4722 21.3966 13.735 21.3247 13.9951L22.271 14.7173C22.3872 14.8114 22.4619 14.9165 22.4951 15.0327C22.5283 15.1434 22.5173 15.2651 22.4619 15.3979C22.4121 15.5363 22.3374 15.6414 22.2378 15.7134C22.1382 15.7798 22.0137 15.8102 21.8643 15.8047L20.6855 15.7632C20.5693 16.0067 20.4421 16.2474 20.3037 16.4854C20.1654 16.7178 20.0215 16.9447 19.8721 17.166L20.5029 18.1704C20.5859 18.2977 20.6219 18.4194 20.6108 18.5356C20.6053 18.6574 20.5555 18.7736 20.4614 18.8843C20.3618 18.995 20.2539 19.0641 20.1377 19.0918C20.0215 19.125 19.8942 19.1139 19.7559 19.0586L18.6602 18.6187C18.4665 18.8068 18.2645 18.9867 18.0542 19.1582C17.8494 19.3353 17.6336 19.5013 17.4067 19.6562L17.6558 20.8184C17.689 20.9622 17.6807 21.0895 17.6309 21.2002C17.5866 21.3109 17.5008 21.4022 17.3735 21.4741C17.2463 21.5405 17.1217 21.5682 17 21.5571C16.8838 21.5516 16.7703 21.4963 16.6597 21.3911L15.7881 20.6025C15.5391 20.7132 15.2873 20.8156 15.0327 20.9097C14.7782 21.0037 14.5181 21.0895 14.2524 21.167L14.0781 22.3374C14.0615 22.4813 14.0117 22.5975 13.9287 22.686C13.8512 22.7746 13.7406 22.8299 13.5967 22.8521C13.4528 22.8687 13.3283 22.8521 13.2231 22.8022C13.118 22.7524 13.0295 22.6611 12.9575 22.5283L12.4014 21.4824C12.263 21.4935 12.1247 21.5018 11.9863 21.5073C11.8535 21.5129 11.7179 21.5156 11.5796 21.5156ZM11.5796 20.0049C12.7638 20.0049 13.8734 19.7835 14.9082 19.3408C15.943 18.8981 16.8506 18.2839 17.6309 17.498C18.4167 16.7122 19.0309 15.8019 19.4736 14.7671C19.9219 13.7323 20.146 12.6255 20.146 11.4468C20.146 10.2625 19.9219 9.15299 19.4736 8.11816C19.0309 7.08333 18.4167 6.17578 17.6309 5.39551C16.8506 4.6097 15.943 3.99544 14.9082 3.55273C13.8734 3.10449 12.7638 2.88037 11.5796 2.88037C10.4009 2.88037 9.29411 3.10449 8.25928 3.55273C7.22445 3.99544 6.31413 4.6097 5.52832 5.39551C4.74251 6.17578 4.12826 7.08333 3.68555 8.11816C3.24284 9.15299 3.02148 10.2625 3.02148 11.4468C3.02148 12.6255 3.24284 13.7323 3.68555 14.7671C4.12826 15.8019 4.74251 16.7122 5.52832 17.498C6.31413 18.2839 7.22445 18.8981 8.25928 19.3408C9.29411 19.7835 10.4009 20.0049 11.5796 20.0049ZM9.85303 9.81982L6.20068 3.57764L7.34619 2.93848L10.957 9.13916L9.85303 9.81982ZM13.8706 12.061V10.7744H21.0591V12.061H13.8706ZM10.9985 13.771L7.25488 19.9468L6.12598 19.2827L9.91113 13.0737L10.9985 13.771ZM11.5962 14.103C11.1037 14.103 10.6554 13.984 10.2515 13.7461C9.84749 13.5081 9.52653 13.1872 9.28857 12.7832C9.05062 12.3792 8.93164 11.9338 8.93164 11.4468C8.93164 10.9543 9.05062 10.5088 9.28857 10.1104C9.52653 9.70638 9.84749 9.38542 10.2515 9.14746C10.6554 8.90397 11.1037 8.78223 11.5962 8.78223C12.0832 8.78223 12.5286 8.90397 12.9326 9.14746C13.3366 9.38542 13.6576 9.70638 13.8955 10.1104C14.1335 10.5088 14.2524 10.9543 14.2524 11.4468C14.2524 11.9338 14.1335 12.3792 13.8955 12.7832C13.6576 13.1872 13.3366 13.5081 12.9326 13.7461C12.5286 13.984 12.0832 14.103 11.5962 14.103ZM11.5962 12.7251C11.9448 12.7251 12.2437 12.6006 12.4927 12.3516C12.7472 12.1025 12.8745 11.8009 12.8745 11.4468C12.8745 11.0926 12.7472 10.791 12.4927 10.542C12.2437 10.293 11.9448 10.1685 11.5962 10.1685C11.242 10.1685 10.9404 10.293 10.6914 10.542C10.4424 10.791 10.3179 11.0926 10.3179 11.4468C10.3179 11.8009 10.4424 12.1025 10.6914 12.3516C10.9404 12.6006 11.242 12.7251 11.5962 12.7251Z" fill="#404040"/>
</g>
</svg>
