<svg width="24" height="21" viewBox="0 0 24 21" fill="none" xmlns="http://www.w3.org/2000/svg">
<path d="M0 19.5898V1.0625C0 0.769206 0.0968424 0.520182 0.290527 0.31543C0.489746 0.105143 0.741536 0 1.0459 0C1.35026 0 1.59928 0.105143 1.79297 0.31543C1.99219 0.520182 2.0918 0.769206 2.0918 1.0625V18.1123C2.0918 18.2949 2.18587 18.3862 2.37402 18.3862H22.4702C22.7635 18.3862 23.0125 18.4858 23.2173 18.6851C23.422 18.8843 23.5244 19.1333 23.5244 19.4321C23.5244 19.7365 23.422 19.9855 23.2173 20.1792C23.0125 20.3784 22.7635 20.478 22.4702 20.478H0.896484C0.625326 20.478 0.406738 20.395 0.240723 20.229C0.0802409 20.0685 0 19.8555 0 19.5898ZM8.04346 10.019C7.66715 10.019 7.32406 9.9305 7.01416 9.75342C6.7098 9.5708 6.46631 9.32731 6.28369 9.02295C6.10107 8.71305 6.00977 8.37272 6.00977 8.00195C6.00977 7.62565 6.10107 7.28532 6.28369 6.98096C6.46631 6.67106 6.7098 6.42757 7.01416 6.25049C7.32406 6.06787 7.66715 5.97656 8.04346 5.97656C8.41423 5.97656 8.75179 6.06787 9.05615 6.25049C9.36605 6.42757 9.6123 6.67106 9.79492 6.98096C9.97754 7.28532 10.0688 7.62565 10.0688 8.00195C10.0688 8.37272 9.97754 8.71305 9.79492 9.02295C9.6123 9.32731 9.36605 9.5708 9.05615 9.75342C8.75179 9.9305 8.41423 10.019 8.04346 10.019ZM13.2812 14.1445C12.9049 14.1445 12.5618 14.0532 12.252 13.8706C11.9476 13.688 11.7041 13.4445 11.5215 13.1401C11.3444 12.8302 11.2559 12.4871 11.2559 12.1108C11.2559 11.7401 11.3444 11.4025 11.5215 11.0981C11.7041 10.7882 11.9476 10.542 12.252 10.3594C12.5618 10.1768 12.9049 10.0854 13.2812 10.0854C13.652 10.0854 13.9896 10.1768 14.2939 10.3594C14.6038 10.542 14.8501 10.7882 15.0327 11.0981C15.2153 11.4025 15.3066 11.7401 15.3066 12.1108C15.3066 12.4871 15.2153 12.8302 15.0327 13.1401C14.8501 13.4445 14.6038 13.688 14.2939 13.8706C13.9896 14.0532 13.652 14.1445 13.2812 14.1445ZM21.3247 9.18066C20.9539 9.18066 20.6136 9.08936 20.3037 8.90674C19.9938 8.71859 19.7476 8.47233 19.5649 8.16797C19.3879 7.86361 19.2993 7.52327 19.2993 7.14697C19.2993 6.7762 19.3879 6.43864 19.5649 6.13428C19.7476 5.82438 19.9938 5.57812 20.3037 5.39551C20.6136 5.21289 20.9539 5.12158 21.3247 5.12158C21.701 5.12158 22.0413 5.21289 22.3457 5.39551C22.6501 5.57812 22.8936 5.82438 23.0762 6.13428C23.2588 6.43864 23.3501 6.7762 23.3501 7.14697C23.3501 7.52327 23.2588 7.86361 23.0762 8.16797C22.8936 8.47233 22.6501 8.71859 22.3457 8.90674C22.0413 9.08936 21.701 9.18066 21.3247 9.18066ZM1.90088 12.252C1.71273 12.3571 1.51628 12.382 1.31152 12.3267C1.10677 12.2713 0.95459 12.1523 0.85498 11.9697C0.73877 11.7871 0.708333 11.5934 0.763672 11.3887C0.81901 11.1784 0.940755 11.0207 1.12891 10.9155L7.56201 7.18848C7.99919 6.92839 8.41423 6.96436 8.80713 7.29639L13.3643 11.1978L20.7852 6.66553C20.9733 6.56038 21.1698 6.53548 21.3745 6.59082C21.5793 6.64062 21.7342 6.75684 21.8394 6.93945C21.95 7.12207 21.9805 7.31852 21.9307 7.52881C21.8809 7.73356 21.7646 7.88851 21.582 7.99365L13.9121 12.667C13.4694 12.9382 13.0516 12.9077 12.6587 12.5757L8.08496 8.65771L1.90088 12.252Z" fill="#0088FF"/>
</svg>
