<svg width="23" height="20" viewBox="0 0 23 20" fill="none" xmlns="http://www.w3.org/2000/svg">
<g style="mix-blend-mode:plus-darker">
<path d="M0 19.0254V0.73877C0 0.545085 0.0691732 0.373535 0.20752 0.224121C0.3514 0.074707 0.528483 0 0.73877 0C0.949056 0 1.12337 0.074707 1.26172 0.224121C1.40007 0.373535 1.46924 0.545085 1.46924 0.73877V18.0625C1.46924 18.2451 1.56055 18.3364 1.74316 18.3364H22.1797C22.3789 18.3364 22.5505 18.4056 22.6943 18.5439C22.8438 18.6878 22.9185 18.8621 22.9185 19.0669C22.9185 19.2716 22.8438 19.4432 22.6943 19.5815C22.5505 19.7254 22.3789 19.7974 22.1797 19.7974H0.771973C0.539551 19.7974 0.3514 19.7254 0.20752 19.5815C0.0691732 19.4432 0 19.2578 0 19.0254ZM7.78613 9.66211C7.4541 9.66211 7.15251 9.58187 6.88135 9.42139C6.61572 9.2609 6.3999 9.04508 6.23389 8.77393C6.0734 8.50277 5.99316 8.20394 5.99316 7.87744C5.99316 7.55094 6.0734 7.25212 6.23389 6.98096C6.3999 6.7098 6.61572 6.49398 6.88135 6.3335C7.15251 6.17301 7.4541 6.09277 7.78613 6.09277C8.11263 6.09277 8.41146 6.17301 8.68262 6.3335C8.95378 6.49398 9.1696 6.7098 9.33008 6.98096C9.49056 7.25212 9.5708 7.55094 9.5708 7.87744C9.5708 8.20394 9.49056 8.50277 9.33008 8.77393C9.1696 9.04508 8.95378 9.2609 8.68262 9.42139C8.41146 9.58187 8.11263 9.66211 7.78613 9.66211ZM12.8579 13.6963C12.5259 13.6963 12.2243 13.616 11.9531 13.4556C11.6875 13.2951 11.4744 13.0793 11.314 12.8081C11.1535 12.5369 11.0732 12.2381 11.0732 11.9116C11.0732 11.5796 11.1535 11.2808 11.314 11.0151C11.4744 10.744 11.6875 10.5282 11.9531 10.3677C12.2243 10.2072 12.5259 10.127 12.8579 10.127C13.1844 10.127 13.4832 10.2072 13.7544 10.3677C14.0256 10.5282 14.2414 10.744 14.4019 11.0151C14.5623 11.2808 14.6426 11.5796 14.6426 11.9116C14.6426 12.2381 14.5623 12.5369 14.4019 12.8081C14.2414 13.0793 14.0256 13.2951 13.7544 13.4556C13.4832 13.616 13.1844 13.6963 12.8579 13.6963ZM20.9097 8.73242C20.5832 8.73242 20.2843 8.65218 20.0132 8.4917C19.742 8.32568 19.5262 8.10986 19.3657 7.84424C19.2052 7.57308 19.125 7.27148 19.125 6.93945C19.125 6.61296 19.2052 6.31413 19.3657 6.04297C19.5262 5.77181 19.742 5.55599 20.0132 5.39551C20.2843 5.23503 20.5832 5.15479 20.9097 5.15479C21.2417 5.15479 21.5405 5.23503 21.8062 5.39551C22.0773 5.55599 22.2931 5.77181 22.4536 6.04297C22.6141 6.31413 22.6943 6.61296 22.6943 6.93945C22.6943 7.27148 22.6141 7.57308 22.4536 7.84424C22.2931 8.10986 22.0773 8.32568 21.8062 8.4917C21.5405 8.65218 21.2417 8.73242 20.9097 8.73242ZM1.40283 12.0361C1.26449 12.1081 1.12061 12.1247 0.971191 12.0859C0.827311 12.0472 0.719401 11.9614 0.647461 11.8286C0.564453 11.6958 0.542318 11.5547 0.581055 11.4053C0.625326 11.2559 0.713867 11.1424 0.84668 11.0649L7.50391 7.21338C7.82487 7.01969 8.12923 7.05013 8.41699 7.30469L12.9658 11.2642L20.4614 6.65723C20.5998 6.58529 20.7437 6.56868 20.8931 6.60742C21.0425 6.64062 21.1532 6.72363 21.2251 6.85645C21.3081 6.98926 21.3302 7.13037 21.2915 7.27979C21.2528 7.4292 21.1698 7.54264 21.0425 7.62012L13.3726 12.3267C13.0461 12.5259 12.7417 12.501 12.4595 12.252L7.89404 8.26758L1.40283 12.0361Z" fill="#404040"/>
</g>
</svg>
