<svg width="43" height="50" viewBox="0 0 43 50" fill="none" xmlns="http://www.w3.org/2000/svg">
<path d="M5.15039 23.2559H1.74023C1.25977 23.2559 0.849609 23.0859 0.509766 22.7461C0.169922 22.3945 0 21.9785 0 21.498C0 21.0293 0.169922 20.6191 0.509766 20.2676C0.849609 19.916 1.25977 19.7402 1.74023 19.7402H5.15039C5.61914 19.7402 6.0293 19.916 6.38086 20.2676C6.74414 20.6074 6.92578 21.0176 6.92578 21.498C6.92578 21.9785 6.74414 22.3945 6.38086 22.7461C6.0293 23.0859 5.61914 23.2559 5.15039 23.2559ZM8.66602 11.1445L6.25781 8.73633C5.91797 8.39648 5.74805 7.98633 5.74805 7.50586C5.74805 7.02539 5.91797 6.60938 6.25781 6.25781C6.60938 5.91797 7.02539 5.74805 7.50586 5.74805C7.99805 5.74805 8.4082 5.91797 8.73633 6.25781L11.127 8.68359C11.4668 9.02344 11.6367 9.43359 11.6367 9.91406C11.6484 10.3945 11.4785 10.8047 11.127 11.1445C10.7871 11.4961 10.377 11.6719 9.89648 11.6719C9.41602 11.6602 9.00586 11.4844 8.66602 11.1445ZM19.7402 5.16797V1.75781C19.7402 1.28906 19.9102 0.878906 20.25 0.527344C20.6016 0.175781 21.0176 0 21.498 0C21.9785 0 22.3945 0.175781 22.7461 0.527344C23.0977 0.878906 23.2734 1.28906 23.2734 1.75781V5.16797C23.2734 5.63672 23.0977 6.04688 22.7461 6.39844C22.4062 6.75 21.9902 6.92578 21.498 6.92578C21.0176 6.92578 20.6016 6.75 20.25 6.39844C19.9102 6.04688 19.7402 5.63672 19.7402 5.16797ZM31.8516 8.68359L34.2773 6.25781C34.6172 5.91797 35.0215 5.74805 35.4902 5.74805C35.9707 5.74805 36.3867 5.91797 36.7383 6.25781C37.0781 6.60938 37.248 7.02539 37.248 7.50586C37.248 7.98633 37.0781 8.39648 36.7383 8.73633L34.3125 11.1445C33.9844 11.4961 33.5801 11.6719 33.0996 11.6719C32.6191 11.6719 32.2031 11.4961 31.8516 11.1445C31.5 10.8047 31.3242 10.3945 31.3242 9.91406C31.3359 9.43359 31.5117 9.02344 31.8516 8.68359ZM41.2207 23.2559H37.8281C37.3477 23.2559 36.9316 23.0859 36.5801 22.7461C36.2402 22.3945 36.0703 21.9785 36.0703 21.498C36.0703 21.0176 36.2402 20.6074 36.5801 20.2676C36.9316 19.916 37.3477 19.7402 37.8281 19.7402H41.2207C41.7012 19.7402 42.1172 19.916 42.4688 20.2676C42.8203 20.6191 42.9961 21.0293 42.9961 21.498C42.9961 21.9785 42.8203 22.3945 42.4688 22.7461C42.1172 23.0859 41.7012 23.2559 41.2207 23.2559ZM21.498 9.98438C23.0566 9.98438 24.5156 10.2539 25.875 10.793C27.2461 11.3203 28.4473 12.0527 29.4785 12.9902C30.5098 13.9277 31.3125 15.0293 31.8867 16.2949C32.4609 17.5605 32.748 18.9258 32.748 20.3906C32.748 21.6445 32.6191 22.7637 32.3613 23.748C32.1152 24.7324 31.7871 25.6934 31.377 26.6309C30.9785 27.5684 30.5566 28.5938 30.1113 29.707C29.6777 30.8203 29.2734 32.1328 28.8984 33.6445C28.5234 35.1445 28.2363 36.9668 28.0371 39.1113C28.002 39.5098 27.8672 39.8262 27.6328 40.0605C27.3984 40.2949 27.0703 40.4121 26.6484 40.4121H16.3477C15.9258 40.4121 15.5977 40.2949 15.3633 40.0605C15.1289 39.8262 14.9941 39.5098 14.959 39.1113C14.7598 36.9668 14.4727 35.1445 14.0977 33.6445C13.7227 32.1328 13.3125 30.8203 12.8672 29.707C12.4336 28.5938 12.0176 27.5684 11.6191 26.6309C11.2207 25.6934 10.8926 24.7324 10.6348 23.748C10.3887 22.7637 10.2656 21.6445 10.2656 20.3906C10.2656 18.9258 10.5527 17.5605 11.127 16.2949C11.7012 15.0293 12.498 13.9277 13.5176 12.9902C14.5488 12.041 15.7441 11.3027 17.1035 10.7754C18.4629 10.248 19.9277 9.98438 21.498 9.98438ZM21.498 13.0078C20.373 13.0078 19.3125 13.1895 18.3164 13.5527C17.332 13.916 16.459 14.4258 15.6973 15.082C14.9473 15.7383 14.3555 16.5176 13.9219 17.4199C13.4883 18.3223 13.2715 19.3125 13.2715 20.3906C13.2715 21.2812 13.377 22.084 13.5879 22.7988C13.7988 23.5137 14.0742 24.2578 14.4141 25.0312C14.7656 25.793 15.1406 26.7012 15.5391 27.7559C15.9375 28.7988 16.3242 30.0938 16.6992 31.6406C17.0859 33.1875 17.4258 35.1094 17.7188 37.4062H25.2773C25.5703 35.1094 25.9043 33.1875 26.2793 31.6406C26.666 30.0938 27.0586 28.7988 27.457 27.7559C27.8672 26.7012 28.2422 25.793 28.582 25.0312C28.9336 24.2578 29.209 23.5137 29.4082 22.7988C29.6191 22.084 29.7246 21.2812 29.7246 20.3906C29.7246 19.3125 29.5078 18.3223 29.0742 17.4199C28.6523 16.5176 28.0605 15.7383 27.2988 15.082C26.5371 14.4258 25.6582 13.916 24.6621 13.5527C23.666 13.1895 22.6113 13.0078 21.498 13.0078ZM16.2246 44.2441C15.9082 44.2441 15.6445 44.1387 15.4336 43.9277C15.2227 43.7051 15.1172 43.4414 15.1172 43.1367C15.1172 42.8203 15.2227 42.5566 15.4336 42.3457C15.6445 42.1348 15.9082 42.0293 16.2246 42.0293H26.7715C27.0879 42.0293 27.3516 42.1348 27.5625 42.3457C27.7852 42.5566 27.8965 42.8203 27.8965 43.1367C27.8965 43.4414 27.7852 43.7051 27.5625 43.9277C27.3516 44.1387 27.0879 44.2441 26.7715 44.2441H16.2246ZM21.498 49.166C20.1621 49.166 19.0137 48.8613 18.0527 48.252C17.1035 47.6426 16.5996 46.8457 16.541 45.8613H26.4375C26.3789 46.8457 25.8691 47.6426 24.9082 48.252C23.959 48.8613 22.8223 49.166 21.498 49.166Z" fill="white"/>
</svg>
