<svg width="22" height="22" viewBox="0 0 22 22" fill="none" xmlns="http://www.w3.org/2000/svg">
<path style="mix-blend-mode:plus-darker" d="M10.9487 21.9058C9.74235 21.9058 8.59131 21.7204 7.49561 21.3496C6.3999 20.9844 5.39551 20.4642 4.48242 19.7891C3.57487 19.1195 2.78353 18.3281 2.1084 17.415C1.4388 16.5075 0.91862 15.5059 0.547852 14.4102C0.182617 13.3145 0 12.1634 0 10.957C0 9.74512 0.182617 8.59408 0.547852 7.50391C0.91862 6.4082 1.4388 5.40381 2.1084 4.49072C2.78353 3.57764 3.57487 2.7863 4.48242 2.1167C5.39551 1.4471 6.3999 0.926921 7.49561 0.556152C8.59131 0.185384 9.74235 0 10.9487 0C12.1606 0 13.3117 0.185384 14.4019 0.556152C15.4976 0.926921 16.502 1.4471 17.415 2.1167C18.3281 2.7863 19.1195 3.57764 19.7891 4.49072C20.4587 5.40381 20.9788 6.4082 21.3496 7.50391C21.7204 8.59408 21.9058 9.74512 21.9058 10.957C21.9058 12.1634 21.7204 13.3145 21.3496 14.4102C20.9788 15.5059 20.4587 16.5075 19.7891 17.415C19.1195 18.3281 18.3281 19.1195 17.415 19.7891C16.502 20.4642 15.4976 20.9844 14.4019 21.3496C13.3117 21.7204 12.1606 21.9058 10.9487 21.9058ZM10.9487 20.0049C11.9504 20.0049 12.9022 19.8527 13.8042 19.5483C14.7118 19.244 15.5418 18.8151 16.2944 18.2617C17.047 17.7083 17.7 17.0553 18.2534 16.3027C18.8123 15.5446 19.2412 14.7145 19.54 13.8125C19.8444 12.9105 19.9966 11.9587 19.9966 10.957C19.9966 9.9554 19.8444 9.00358 19.54 8.10156C19.2412 7.19401 18.8123 6.36393 18.2534 5.61133C17.7 4.85872 17.047 4.20573 16.2944 3.65234C15.5418 3.09342 14.7118 2.66455 13.8042 2.36572C12.9022 2.06136 11.9504 1.90918 10.9487 1.90918C9.9471 1.90918 8.99528 2.06136 8.09326 2.36572C7.19124 2.66455 6.36117 3.09342 5.60303 3.65234C4.85042 4.20573 4.19743 4.85872 3.64404 5.61133C3.09066 6.36393 2.66178 7.19401 2.35742 8.10156C2.05306 9.00358 1.90088 9.9554 1.90088 10.957C1.90088 11.9587 2.05306 12.9105 2.35742 13.8125C2.66178 14.7145 3.09066 15.5446 3.64404 16.3027C4.19743 17.0553 4.85042 17.7083 5.60303 18.2617C6.36117 18.8151 7.19124 19.244 8.09326 19.5483C8.99528 19.8527 9.9471 20.0049 10.9487 20.0049ZM6.86475 15.8877C6.63232 15.8877 6.44694 15.813 6.30859 15.6636C6.17578 15.5142 6.10938 15.3066 6.10938 15.041V6.94775C6.10938 6.64893 6.20345 6.4082 6.3916 6.22559C6.58529 6.03743 6.83431 5.94336 7.13867 5.94336C7.66992 5.94336 8.02962 6.19515 8.21777 6.69873L10.9155 13.5801H10.9736L13.6465 6.69873C13.8402 6.19515 14.2026 5.94336 14.7339 5.94336C15.0382 5.94336 15.2845 6.03743 15.4727 6.22559C15.6663 6.4082 15.7632 6.64893 15.7632 6.94775V15.041C15.7632 15.3122 15.694 15.5225 15.5557 15.6719C15.4229 15.8158 15.2347 15.8877 14.9912 15.8877C14.7588 15.8877 14.5762 15.813 14.4434 15.6636C14.3105 15.5142 14.2441 15.3066 14.2441 15.041V8.79053H14.1611L11.729 14.9746C11.5851 15.3454 11.3167 15.5308 10.9238 15.5308C10.542 15.5308 10.2791 15.3454 10.1353 14.9746L7.71973 8.79053H7.63672V15.041C7.63672 15.3122 7.56755 15.5225 7.4292 15.6719C7.29639 15.8158 7.10824 15.8877 6.86475 15.8877Z" fill="#404040"/>
</svg>
