<svg width="17" height="25" viewBox="0 0 17 25" fill="none" xmlns="http://www.w3.org/2000/svg">
<path d="M8.33203 24.1523C6.66016 24.1445 5.19922 23.8008 3.94922 23.1211C2.69922 22.4492 1.72656 21.5039 1.03125 20.2852C0.34375 19.0586 0 17.6328 0 16.0078C0 15.2188 0.0898438 14.4375 0.269531 13.6641C0.449219 12.8828 0.671875 12.1328 0.9375 11.4141C1.21094 10.6953 1.48438 10.0391 1.75781 9.44531C2.17188 8.52344 2.66016 7.58594 3.22266 6.63281C3.78516 5.67188 4.37891 4.71484 5.00391 3.76172C5.62891 2.80859 6.23828 1.875 6.83203 0.960938C7.04297 0.640625 7.27344 0.402344 7.52344 0.246094C7.78125 0.0820312 8.05078 0 8.33203 0C8.61328 0 8.87891 0.0820312 9.12891 0.246094C9.38672 0.402344 9.62109 0.640625 9.83203 0.960938C10.418 1.85938 11.0195 2.78125 11.6367 3.72656C12.2539 4.67188 12.8438 5.62109 13.4062 6.57422C13.9688 7.51953 14.4531 8.44922 14.8594 9.36328C15.1406 9.96484 15.418 10.6289 15.6914 11.3555C15.9727 12.082 16.2031 12.8398 16.3828 13.6289C16.5703 14.418 16.6641 15.2109 16.6641 16.0078C16.6641 17.6328 16.3164 19.0586 15.6211 20.2852C14.9258 21.5039 13.9531 22.4492 12.7031 23.1211C11.4531 23.8008 9.99609 24.1445 8.33203 24.1523Z" fill="#0088FF"/>
</svg>
