<svg width="22" height="22" viewBox="0 0 22 22" fill="none" xmlns="http://www.w3.org/2000/svg">
<path d="M10.0854 17.9961C9.84196 17.9961 9.63167 17.9076 9.45459 17.7305C9.28304 17.5589 9.19727 17.3542 9.19727 17.1162V12.1689C7.92448 12.0804 6.83154 11.8175 5.91846 11.3804C5.0109 10.9377 4.25 10.3898 3.63574 9.73682C3.02702 9.07829 2.54004 8.36995 2.1748 7.61182C1.80957 6.85368 1.53564 6.10384 1.35303 5.3623C1.17594 4.61523 1.05973 3.94287 1.00439 3.34521C0.965658 2.8361 1.18701 2.58154 1.66846 2.58154C2.35465 2.58154 3.03255 2.64795 3.70215 2.78076C4.37174 2.90804 5.01644 3.10726 5.63623 3.37842C6.26156 3.64404 6.84814 3.98161 7.396 4.39111C7.94938 4.80062 8.44743 5.2793 8.89014 5.82715C9.33838 6.375 9.71468 6.99479 10.019 7.68652C10.5558 6.08171 11.3278 4.70378 12.335 3.55273C13.3477 2.39616 14.5513 1.51628 15.9458 0.913086C17.3459 0.304362 18.9009 0.00830078 20.6108 0.0249023C20.9041 0.0249023 21.131 0.110677 21.2915 0.282227C21.452 0.448242 21.5322 0.669596 21.5322 0.946289C21.5488 2.57324 21.3109 4.05632 20.8184 5.39551C20.3314 6.72917 19.6258 7.88574 18.7017 8.86523C17.7775 9.84473 16.6624 10.6195 15.3564 11.1895C14.0505 11.7539 12.5895 12.0832 10.9736 12.1772V17.1162C10.9736 17.3542 10.8851 17.5589 10.708 17.7305C10.5365 17.9076 10.3289 17.9961 10.0854 17.9961ZM9.10596 10.3677C8.96208 9.63167 8.74349 8.96761 8.4502 8.37549C8.16243 7.78337 7.8138 7.26318 7.4043 6.81494C7.00033 6.36117 6.55208 5.9738 6.05957 5.65283C5.57259 5.33187 5.05794 5.07731 4.51562 4.88916C3.97884 4.69548 3.43929 4.5599 2.89697 4.48242C2.99658 5.07454 3.15983 5.6473 3.38672 6.20068C3.61914 6.74854 3.90967 7.26042 4.2583 7.73633C4.60693 8.21224 5.01644 8.63558 5.48682 9.00635C5.96273 9.37712 6.50228 9.68148 7.10547 9.91943C7.70866 10.1519 8.37549 10.3013 9.10596 10.3677ZM11.1812 10.3677C12.4152 10.257 13.5386 9.97754 14.5513 9.5293C15.5695 9.07552 16.4521 8.47786 17.1992 7.73633C17.9518 6.98926 18.5412 6.12321 18.9673 5.13818C19.3989 4.14762 19.6396 3.06299 19.6895 1.88428C18.5827 1.96175 17.5562 2.21631 16.6099 2.64795C15.6691 3.07406 14.8307 3.65788 14.0947 4.39941C13.3643 5.13542 12.75 6.007 12.252 7.01416C11.7594 8.02132 11.4025 9.13916 11.1812 10.3677ZM0.987793 21.5073C0.716634 21.5073 0.484212 21.4077 0.290527 21.2085C0.0968424 21.0148 0 20.7824 0 20.5112C0 20.2401 0.0968424 20.0049 0.290527 19.8057C0.484212 19.612 0.716634 19.5151 0.987793 19.5151C1.26449 19.5151 1.49967 19.612 1.69336 19.8057C1.88704 20.0049 1.98389 20.2401 1.98389 20.5112C1.98389 20.7824 1.88704 21.0148 1.69336 21.2085C1.49967 21.4077 1.26449 21.5073 0.987793 21.5073ZM3.76025 19.5898C3.48356 19.5898 3.24837 19.493 3.05469 19.2993C2.861 19.1056 2.76416 18.8732 2.76416 18.6021C2.76416 18.3254 2.861 18.0874 3.05469 17.8882C3.24837 17.6945 3.48356 17.5977 3.76025 17.5977C4.03141 17.5977 4.26383 17.6945 4.45752 17.8882C4.6512 18.0874 4.74805 18.3254 4.74805 18.6021C4.74805 18.8732 4.6512 19.1056 4.45752 19.2993C4.26383 19.493 4.03141 19.5898 3.76025 19.5898ZM6.88965 18.4858C6.61296 18.4858 6.375 18.3862 6.17578 18.187C5.9821 17.9933 5.88525 17.7609 5.88525 17.4897C5.88525 17.2186 5.9821 16.9834 6.17578 16.7842C6.375 16.5905 6.61296 16.4937 6.88965 16.4937C7.16081 16.4937 7.39323 16.5905 7.58691 16.7842C7.7806 16.9834 7.87744 17.2186 7.87744 17.4897C7.87744 17.7609 7.7806 17.9933 7.58691 18.187C7.39323 18.3862 7.16081 18.4858 6.88965 18.4858ZM13.2812 18.4858C13.0156 18.4858 12.7832 18.3862 12.584 18.187C12.3903 17.9933 12.2935 17.7609 12.2935 17.4897C12.2935 17.2186 12.3903 16.9834 12.584 16.7842C12.7832 16.5905 13.0156 16.4937 13.2812 16.4937C13.5579 16.4937 13.7931 16.5905 13.9868 16.7842C14.186 16.9834 14.2856 17.2186 14.2856 17.4897C14.2856 17.7609 14.186 17.9933 13.9868 18.187C13.7931 18.3862 13.5579 18.4858 13.2812 18.4858ZM16.4106 19.5898C16.1395 19.5898 15.9071 19.493 15.7134 19.2993C15.5197 19.1056 15.4229 18.8732 15.4229 18.6021C15.4229 18.3254 15.5197 18.0874 15.7134 17.8882C15.9071 17.6945 16.1395 17.5977 16.4106 17.5977C16.6818 17.5977 16.9142 17.6945 17.1079 17.8882C17.3071 18.0874 17.4067 18.3254 17.4067 18.6021C17.4067 18.8732 17.3071 19.1056 17.1079 19.2993C16.9142 19.493 16.6818 19.5898 16.4106 19.5898ZM19.1831 21.5073C18.9064 21.5073 18.6712 21.4077 18.4775 21.2085C18.2839 21.0148 18.187 20.7824 18.187 20.5112C18.187 20.2401 18.2839 20.0049 18.4775 19.8057C18.6712 19.612 18.9064 19.5151 19.1831 19.5151C19.4543 19.5151 19.6867 19.612 19.8804 19.8057C20.0741 20.0049 20.1709 20.2401 20.1709 20.5112C20.1709 20.7824 20.0741 21.0148 19.8804 21.2085C19.6867 21.4077 19.4543 21.5073 19.1831 21.5073Z" fill="#0088FF"/>
</svg>
