<svg width="21" height="21" viewBox="0 0 21 21" fill="none" xmlns="http://www.w3.org/2000/svg">
<g style="mix-blend-mode:plus-darker">
<path d="M9.5874 17.332C9.39925 17.332 9.236 17.2629 9.09766 17.1245C8.96484 16.9917 8.89844 16.8312 8.89844 16.6431V11.6211C7.65332 11.5492 6.58252 11.3057 5.68604 10.8906C4.79508 10.4701 4.04801 9.94157 3.44482 9.30518C2.84163 8.66878 2.36019 7.98258 2.00049 7.24658C1.64079 6.51058 1.36963 5.78011 1.18701 5.05518C1.00993 4.33024 0.896484 3.67448 0.84668 3.08789C0.824544 2.71712 0.99056 2.53174 1.34473 2.53174C1.99772 2.53174 2.65348 2.59814 3.31201 2.73096C3.97054 2.85824 4.6097 3.06022 5.22949 3.33691C5.84928 3.60807 6.43311 3.95671 6.98096 4.38281C7.53434 4.80339 8.02962 5.3042 8.4668 5.88525C8.90397 6.46631 9.26367 7.1276 9.5459 7.86914C10.0495 6.22559 10.791 4.81445 11.7705 3.63574C12.7555 2.4515 13.937 1.54948 15.3149 0.929688C16.6984 0.309896 18.2313 0.0138346 19.9136 0.0415039C20.1626 0.0415039 20.348 0.110677 20.4697 0.249023C20.597 0.381836 20.6606 0.558919 20.6606 0.780273C20.6828 2.36296 20.4531 3.80452 19.9717 5.10498C19.4958 6.3999 18.8013 7.52051 17.8882 8.4668C16.9806 9.41309 15.8849 10.1574 14.6011 10.6997C13.3172 11.242 11.8784 11.5492 10.2847 11.6211V16.6431C10.2847 16.8312 10.2155 16.9917 10.0771 17.1245C9.94434 17.2629 9.78109 17.332 9.5874 17.332ZM8.84863 10.2183C8.71029 9.39925 8.4834 8.66878 8.16797 8.02686C7.85807 7.37939 7.48177 6.81771 7.03906 6.3418C6.60189 5.86035 6.12044 5.45638 5.59473 5.12988C5.06901 4.80339 4.52393 4.54883 3.95947 4.36621C3.39502 4.18359 2.83887 4.06185 2.29102 4.00098C2.37402 4.59863 2.5262 5.18522 2.74756 5.76074C2.96891 6.33626 3.25667 6.88135 3.61084 7.396C3.97054 7.90511 4.40218 8.36165 4.90576 8.76562C5.40934 9.1696 5.98763 9.49886 6.64062 9.75342C7.29915 10.008 8.03516 10.1629 8.84863 10.2183ZM10.4424 10.2183C11.7373 10.1297 12.916 9.85856 13.9785 9.40479C15.041 8.94548 15.9596 8.33122 16.7344 7.56201C17.5091 6.79281 18.1123 5.89355 18.5439 4.86426C18.9756 3.83496 19.2025 2.70329 19.2246 1.46924C18.0902 1.50244 17.0332 1.7321 16.0537 2.1582C15.0798 2.57878 14.2109 3.1709 13.4473 3.93457C12.6836 4.69824 12.0444 5.61133 11.5298 6.67383C11.0207 7.73079 10.6582 8.91227 10.4424 10.2183ZM0.838379 20.8267C0.611491 20.8267 0.415039 20.7437 0.249023 20.5776C0.0830078 20.4116 0 20.2124 0 19.98C0 19.7531 0.0830078 19.5566 0.249023 19.3906C0.415039 19.2246 0.611491 19.1416 0.838379 19.1416C1.0708 19.1416 1.27002 19.2246 1.43604 19.3906C1.60205 19.5566 1.68506 19.7531 1.68506 19.98C1.68506 20.2124 1.60205 20.4116 1.43604 20.5776C1.27002 20.7437 1.0708 20.8267 0.838379 20.8267ZM3.48633 18.9424C3.25391 18.9424 3.05469 18.8594 2.88867 18.6934C2.72819 18.5273 2.64795 18.3309 2.64795 18.104C2.64795 17.8716 2.72819 17.6724 2.88867 17.5063C3.05469 17.3403 3.25391 17.2573 3.48633 17.2573C3.71875 17.2573 3.9152 17.3403 4.07568 17.5063C4.2417 17.6724 4.32471 17.8716 4.32471 18.104C4.32471 18.3309 4.2417 18.5273 4.07568 18.6934C3.9152 18.8594 3.71875 18.9424 3.48633 18.9424ZM6.50781 17.855C6.27539 17.855 6.07617 17.772 5.91016 17.606C5.74414 17.4399 5.66113 17.2435 5.66113 17.0166C5.66113 16.7842 5.74414 16.585 5.91016 16.4189C6.07617 16.2529 6.27539 16.1699 6.50781 16.1699C6.7347 16.1699 6.93115 16.2529 7.09717 16.4189C7.26318 16.585 7.34619 16.7842 7.34619 17.0166C7.34619 17.2435 7.26318 17.4399 7.09717 17.606C6.93115 17.772 6.7347 17.855 6.50781 17.855ZM12.6753 17.855C12.4484 17.855 12.252 17.772 12.0859 17.606C11.9199 17.4399 11.8369 17.2435 11.8369 17.0166C11.8369 16.7842 11.9199 16.585 12.0859 16.4189C12.252 16.2529 12.4484 16.1699 12.6753 16.1699C12.9077 16.1699 13.1069 16.2529 13.2729 16.4189C13.439 16.585 13.522 16.7842 13.522 17.0166C13.522 17.2435 13.439 17.4399 13.2729 17.606C13.1069 17.772 12.9077 17.855 12.6753 17.855ZM15.6968 18.9424C15.4644 18.9424 15.2651 18.8594 15.0991 18.6934C14.9386 18.5273 14.8584 18.3309 14.8584 18.104C14.8584 17.8716 14.9386 17.6724 15.0991 17.5063C15.2651 17.3403 15.4644 17.2573 15.6968 17.2573C15.9237 17.2573 16.1201 17.3403 16.2861 17.5063C16.4521 17.6724 16.5352 17.8716 16.5352 18.104C16.5352 18.3309 16.4521 18.5273 16.2861 18.6934C16.1201 18.8594 15.9237 18.9424 15.6968 18.9424ZM18.3447 20.8267C18.1123 20.8267 17.9131 20.7437 17.7471 20.5776C17.5811 20.4116 17.498 20.2124 17.498 19.98C17.498 19.7531 17.5811 19.5566 17.7471 19.3906C17.9131 19.2246 18.1123 19.1416 18.3447 19.1416C18.5716 19.1416 18.7681 19.2246 18.9341 19.3906C19.1001 19.5566 19.1831 19.7531 19.1831 19.98C19.1831 20.2124 19.1001 20.4116 18.9341 20.5776C18.7681 20.7437 18.5716 20.8267 18.3447 20.8267Z" fill="#404040"/>
</g>
</svg>
