<svg width="22" height="22" viewBox="0 0 22 22" fill="none" xmlns="http://www.w3.org/2000/svg">
<path style="mix-blend-mode:plus-darker" d="M10.9487 21.9058C9.74235 21.9058 8.59131 21.7204 7.49561 21.3496C6.3999 20.9844 5.39551 20.4642 4.48242 19.7891C3.57487 19.1195 2.78353 18.3281 2.1084 17.415C1.4388 16.5075 0.91862 15.5059 0.547852 14.4102C0.182617 13.3145 0 12.1634 0 10.957C0 9.74512 0.182617 8.59408 0.547852 7.50391C0.91862 6.4082 1.4388 5.40381 2.1084 4.49072C2.78353 3.57764 3.57487 2.7863 4.48242 2.1167C5.39551 1.4471 6.3999 0.926921 7.49561 0.556152C8.59131 0.185384 9.74235 0 10.9487 0C12.1606 0 13.3117 0.185384 14.4019 0.556152C15.4976 0.926921 16.502 1.4471 17.415 2.1167C18.3281 2.7863 19.1195 3.57764 19.7891 4.49072C20.4587 5.40381 20.9788 6.4082 21.3496 7.50391C21.7204 8.59408 21.9058 9.74512 21.9058 10.957C21.9058 12.1634 21.7204 13.3145 21.3496 14.4102C20.9788 15.5059 20.4587 16.5075 19.7891 17.415C19.1195 18.3281 18.3281 19.1195 17.415 19.7891C16.502 20.4642 15.4976 20.9844 14.4019 21.3496C13.3117 21.7204 12.1606 21.9058 10.9487 21.9058ZM10.9487 20.0049C11.9504 20.0049 12.9022 19.8527 13.8042 19.5483C14.7118 19.244 15.5418 18.8151 16.2944 18.2617C17.047 17.7083 17.7 17.0553 18.2534 16.3027C18.8123 15.5446 19.2412 14.7145 19.54 13.8125C19.8444 12.9105 19.9966 11.9587 19.9966 10.957C19.9966 9.9554 19.8444 9.00358 19.54 8.10156C19.2412 7.19401 18.8123 6.36393 18.2534 5.61133C17.7 4.85872 17.047 4.20573 16.2944 3.65234C15.5418 3.09342 14.7118 2.66455 13.8042 2.36572C12.9022 2.06136 11.9504 1.90918 10.9487 1.90918C9.9471 1.90918 8.99528 2.06136 8.09326 2.36572C7.19124 2.66455 6.36117 3.09342 5.60303 3.65234C4.85042 4.20573 4.19743 4.85872 3.64404 5.61133C3.09066 6.36393 2.66178 7.19401 2.35742 8.10156C2.05306 9.00358 1.90088 9.9554 1.90088 10.957C1.90088 11.9587 2.05306 12.9105 2.35742 13.8125C2.66178 14.7145 3.09066 15.5446 3.64404 16.3027C4.19743 17.0553 4.85042 17.7083 5.60303 18.2617C6.36117 18.8151 7.19124 19.244 8.09326 19.5483C8.99528 19.8527 9.9471 20.0049 10.9487 20.0049ZM10.8242 15.9375C10.1989 15.9375 9.63997 15.8517 9.14746 15.6802C8.65495 15.5031 8.24544 15.2707 7.91895 14.9829C7.59798 14.6896 7.37386 14.3687 7.24658 14.02C7.16911 13.8374 7.13037 13.6631 7.13037 13.4971C7.13037 13.2646 7.19954 13.082 7.33789 12.9492C7.47624 12.8109 7.66162 12.7417 7.89404 12.7417C8.21501 12.7417 8.4751 12.9049 8.67432 13.2314C8.8016 13.5192 8.97038 13.7599 9.18066 13.9536C9.39648 14.1418 9.65104 14.2856 9.94434 14.3853C10.2432 14.4793 10.5752 14.5264 10.9404 14.5264C11.3278 14.5264 11.6764 14.471 11.9863 14.3604C12.2962 14.2441 12.5425 14.0781 12.7251 13.8623C12.9077 13.6465 12.999 13.3892 12.999 13.0903C12.999 12.7251 12.869 12.4456 12.6089 12.252C12.3488 12.0527 11.8923 11.8701 11.2393 11.7041L9.78662 11.3223C8.95101 11.112 8.31738 10.8021 7.88574 10.3926C7.4541 9.97754 7.23828 9.43522 7.23828 8.76562C7.23828 8.1901 7.39323 7.68376 7.70312 7.24658C8.01855 6.80941 8.45573 6.46908 9.01465 6.22559C9.57357 5.97656 10.2155 5.85205 10.9404 5.85205C11.8203 5.85205 12.5646 6.0319 13.1733 6.3916C13.7876 6.74577 14.1943 7.19954 14.3936 7.75293C14.471 7.94661 14.5098 8.1237 14.5098 8.28418C14.5098 8.5166 14.4406 8.69368 14.3022 8.81543C14.1639 8.93164 13.984 8.98975 13.7627 8.98975C13.569 8.98975 13.4113 8.95101 13.2896 8.87354C13.1733 8.79053 13.0654 8.66602 12.9658 8.5C12.7943 8.07943 12.5369 7.76123 12.1938 7.54541C11.8507 7.32959 11.4191 7.22168 10.8989 7.22168C10.5282 7.22168 10.2044 7.28255 9.92773 7.4043C9.65658 7.52604 9.44352 7.69482 9.28857 7.91064C9.13363 8.12646 9.05615 8.37549 9.05615 8.65771C9.05615 8.97314 9.17236 9.23047 9.40479 9.42969C9.63721 9.62891 10.0246 9.79769 10.5669 9.93604L11.9531 10.293C12.8883 10.5254 13.5939 10.8491 14.0698 11.2642C14.5513 11.6792 14.792 12.2381 14.792 12.9409C14.792 13.5496 14.6287 14.0781 14.3022 14.5264C13.9757 14.9746 13.5137 15.3232 12.916 15.5723C12.3239 15.8158 11.6266 15.9375 10.8242 15.9375Z" fill="#404040"/>
</svg>
