<svg width="29" height="25" viewBox="0 0 29 25" fill="none" xmlns="http://www.w3.org/2000/svg">
<path d="M14.3086 5.44922C14.5898 5.44922 14.8281 5.55078 15.0234 5.75391C15.2266 5.94922 15.3281 6.1875 15.3281 6.46875V14.707L14.0508 10.8047L18.0234 16.1719C18.2188 16.4297 18.3047 16.6992 18.2812 16.9805C18.2578 17.2617 18.1289 17.4805 17.8945 17.6367C17.6289 17.8242 17.3555 17.8945 17.0742 17.8477C16.8008 17.8008 16.5547 17.6367 16.3359 17.3555L13.582 13.7109C13.4727 13.5781 13.3945 13.4492 13.3477 13.3242C13.3008 13.1914 13.2773 13.0508 13.2773 12.9023V6.46875C13.2773 6.1875 13.375 5.94922 13.5703 5.75391C13.7734 5.55078 14.0195 5.44922 14.3086 5.44922ZM14.3086 0C15.5664 0 16.7773 0.191406 17.9414 0.574219C19.1133 0.949219 20.1875 1.48047 21.1641 2.16797C22.1484 2.84766 22.9922 3.64453 23.6953 4.55859C23.9922 4.91016 24.1289 5.27344 24.1055 5.64844C24.0898 6.01562 23.9336 6.30859 23.6367 6.52734C23.3242 6.77734 22.9883 6.86719 22.6289 6.79688C22.2695 6.72656 21.9531 6.53906 21.6797 6.23438C21.0938 5.50781 20.418 4.87891 19.6523 4.34766C18.8945 3.81641 18.0625 3.40625 17.1562 3.11719C16.2578 2.82812 15.3086 2.68359 14.3086 2.68359C13.1914 2.68359 12.1289 2.86328 11.1211 3.22266C10.1211 3.57422 9.21094 4.07422 8.39062 4.72266C7.57812 5.36328 6.88672 6.12109 6.31641 6.99609C5.74609 7.86328 5.33203 8.8125 5.07422 9.84375H6.5625C6.85938 9.84375 7.08203 9.91406 7.23047 10.0547C7.37891 10.1875 7.44922 10.3594 7.44141 10.5703C7.44141 10.7734 7.35938 10.9883 7.19531 11.2148L4.40625 15.0469C4.21875 15.3047 3.99219 15.4336 3.72656 15.4336C3.46875 15.4336 3.24609 15.3047 3.05859 15.0469L0.257812 11.2266C0.101562 11 0.0195312 10.7812 0.0117188 10.5703C0.00390625 10.3594 0.0742188 10.1875 0.222656 10.0547C0.371094 9.91406 0.597656 9.84375 0.902344 9.84375H2.32031C2.60156 8.45312 3.10547 7.16016 3.83203 5.96484C4.55859 4.76953 5.45312 3.72266 6.51562 2.82422C7.58594 1.92578 8.78125 1.23047 10.1016 0.738281C11.4297 0.246094 12.832 0 14.3086 0ZM14.3086 24.4336C13.0508 24.4336 11.8359 24.2422 10.6641 23.8594C9.49219 23.4766 8.41406 22.9414 7.42969 22.2539C6.45312 21.5742 5.61328 20.7812 4.91016 19.875C4.61328 19.5234 4.47266 19.1641 4.48828 18.7969C4.51172 18.4219 4.67188 18.1211 4.96875 17.8945C5.28906 17.6445 5.625 17.5586 5.97656 17.6367C6.33594 17.707 6.65234 17.8906 6.92578 18.1875C7.51172 18.9141 8.18359 19.5469 8.94141 20.0859C9.70703 20.6172 10.5391 21.0273 11.4375 21.3164C12.3438 21.6055 13.3008 21.75 14.3086 21.75C15.4258 21.75 16.4844 21.5703 17.4844 21.2109C18.4844 20.8594 19.3906 20.3633 20.2031 19.7227C21.0234 19.0742 21.7188 18.3164 22.2891 17.4492C22.8672 16.5742 23.2852 15.6211 23.543 14.5898H22.043C21.7539 14.5898 21.5352 14.5195 21.3867 14.3789C21.2383 14.2383 21.1641 14.0664 21.1641 13.8633C21.1719 13.6523 21.2539 13.4375 21.4102 13.2188L24.1992 9.38672C24.3867 9.12891 24.6094 9 24.8672 9C25.1328 8.99219 25.3633 9.12109 25.5586 9.38672L28.3477 13.207C28.5117 13.4258 28.5938 13.6406 28.5938 13.8516C28.6016 14.0625 28.5312 14.2383 28.3828 14.3789C28.2344 14.5195 28.0078 14.5898 27.7031 14.5898H26.2852C26.0117 15.9805 25.5117 17.2734 24.7852 18.4688C24.0586 19.6641 23.1602 20.707 22.0898 21.5977C21.0195 22.4961 19.8242 23.1914 18.5039 23.6836C17.1836 24.1836 15.7852 24.4336 14.3086 24.4336Z" fill="#EBBC01"/>
</svg>
