<svg width="26" height="19" viewBox="0 0 26 19" fill="none" xmlns="http://www.w3.org/2000/svg">
<path d="M12.9023 4.81641C12.1992 4.81641 11.6055 4.73438 11.1211 4.57031C10.6445 4.40625 10.2344 4.20312 9.89062 3.96094C9.55469 3.71875 9.25 3.47656 8.97656 3.23438C8.70312 2.99219 8.42969 2.78906 8.15625 2.625C7.89062 2.46094 7.58203 2.37891 7.23047 2.37891C6.87891 2.37891 6.57031 2.46094 6.30469 2.625C6.03906 2.78906 5.76953 2.99219 5.49609 3.23438C5.23047 3.47656 4.91797 3.71875 4.55859 3.96094C4.20703 4.20312 3.76562 4.40625 3.23438 4.57031C2.71094 4.73438 2.0625 4.81641 1.28906 4.81641H1.19531C0.867188 4.81641 0.585938 4.69922 0.351562 4.46484C0.117188 4.23047 0 3.94531 0 3.60938C0 3.28906 0.117188 3.01172 0.351562 2.77734C0.585938 2.54297 0.867188 2.42578 1.19531 2.42578H1.28906C1.79688 2.42578 2.24609 2.33203 2.63672 2.14453C3.02734 1.94922 3.46875 1.67578 3.96094 1.32422C4.35156 1.03516 4.8125 0.742187 5.34375 0.445312C5.88281 0.148438 6.51172 0 7.23047 0C7.96484 0 8.60156 0.152344 9.14062 0.457031C9.67969 0.761719 10.1406 1.0625 10.5234 1.35938C10.9375 1.66406 11.3164 1.91797 11.6602 2.12109C12.0117 2.32422 12.4258 2.42578 12.9023 2.42578C13.3711 2.42578 13.7773 2.32422 14.1211 2.12109C14.4727 1.91797 14.8555 1.66406 15.2695 1.35938C15.6602 1.0625 16.125 0.761719 16.6641 0.457031C17.2031 0.152344 17.8359 0 18.5625 0C19.2812 0 19.9062 0.148438 20.4375 0.445312C20.9766 0.742187 21.4414 1.03516 21.832 1.32422C22.3242 1.67578 22.7617 1.94922 23.1445 2.14453C23.5352 2.33203 23.9883 2.42578 24.5039 2.42578H24.5977C24.9258 2.42578 25.207 2.54297 25.4414 2.77734C25.6758 3.01172 25.793 3.28906 25.793 3.60938C25.793 3.94531 25.6758 4.23047 25.4414 4.46484C25.207 4.69922 24.9258 4.81641 24.5977 4.81641H24.5039C23.7227 4.81641 23.0703 4.73438 22.5469 4.57031C22.0312 4.40625 21.5938 4.20312 21.2344 3.96094C20.875 3.71875 20.5586 3.47656 20.2852 3.23438C20.0195 2.99219 19.7539 2.78906 19.4883 2.625C19.2227 2.46094 18.9141 2.37891 18.5625 2.37891C18.2188 2.37891 17.9102 2.46094 17.6367 2.625C17.3633 2.78906 17.0898 2.99219 16.8164 3.23438C16.5508 3.47656 16.2461 3.71875 15.9023 3.96094C15.5586 4.20312 15.1445 4.40625 14.6602 4.57031C14.1836 4.73438 13.5977 4.81641 12.9023 4.81641ZM12.9023 11.8711C12.1992 11.8711 11.6055 11.7891 11.1211 11.625C10.6445 11.4609 10.2344 11.2617 9.89062 11.0273C9.55469 10.7852 9.25 10.543 8.97656 10.3008C8.70312 10.0586 8.42969 9.85547 8.15625 9.69141C7.89062 9.52734 7.58203 9.44531 7.23047 9.44531C6.87891 9.44531 6.57031 9.52734 6.30469 9.69141C6.03906 9.85547 5.76953 10.0586 5.49609 10.3008C5.23047 10.543 4.91797 10.7852 4.55859 11.0273C4.20703 11.2617 3.76562 11.4609 3.23438 11.625C2.71094 11.7891 2.0625 11.8711 1.28906 11.8711H1.19531C0.867188 11.8711 0.585938 11.7578 0.351562 11.5312C0.117188 11.2969 0 11.0117 0 10.6758C0 10.3477 0.117188 10.0703 0.351562 9.84375C0.585938 9.60938 0.867188 9.49219 1.19531 9.49219H1.28906C1.79688 9.49219 2.24609 9.39453 2.63672 9.19922C3.02734 9.00391 3.46875 8.73047 3.96094 8.37891C4.35156 8.09766 4.8125 7.80859 5.34375 7.51172C5.88281 7.21484 6.51172 7.06641 7.23047 7.06641C7.96484 7.06641 8.60156 7.21875 9.14062 7.52344C9.67969 7.82812 10.1406 8.125 10.5234 8.41406C10.9375 8.72656 11.3164 8.98438 11.6602 9.1875C12.0117 9.39062 12.4258 9.49219 12.9023 9.49219C13.3711 9.49219 13.7773 9.39062 14.1211 9.1875C14.4727 8.98438 14.8555 8.72656 15.2695 8.41406C15.6602 8.125 16.125 7.82812 16.6641 7.52344C17.2031 7.21875 17.8359 7.06641 18.5625 7.06641C19.2812 7.06641 19.9062 7.21484 20.4375 7.51172C20.9766 7.80859 21.4414 8.09766 21.832 8.37891C22.3242 8.73047 22.7617 9.00391 23.1445 9.19922C23.5352 9.39453 23.9883 9.49219 24.5039 9.49219H24.5977C24.9258 9.49219 25.207 9.60938 25.4414 9.84375C25.6758 10.0703 25.793 10.3477 25.793 10.6758C25.793 11.0117 25.6758 11.2969 25.4414 11.5312C25.207 11.7578 24.9258 11.8711 24.5977 11.8711H24.5039C23.7227 11.8711 23.0703 11.7891 22.5469 11.625C22.0312 11.4609 21.5938 11.2617 21.2344 11.0273C20.875 10.7852 20.5586 10.543 20.2852 10.3008C20.0195 10.0586 19.7539 9.85547 19.4883 9.69141C19.2227 9.52734 18.9141 9.44531 18.5625 9.44531C18.2188 9.44531 17.9102 9.52734 17.6367 9.69141C17.3633 9.85547 17.0898 10.0586 16.8164 10.3008C16.5508 10.543 16.2461 10.7852 15.9023 11.0273C15.5586 11.2617 15.1445 11.4609 14.6602 11.625C14.1836 11.7891 13.5977 11.8711 12.9023 11.8711ZM12.9023 18.9375C12.1992 18.9375 11.6055 18.8555 11.1211 18.6914C10.6445 18.5273 10.2344 18.3242 9.89062 18.082C9.55469 17.8398 9.25 17.6016 8.97656 17.3672C8.70312 17.125 8.42969 16.9219 8.15625 16.7578C7.89062 16.5938 7.58203 16.5117 7.23047 16.5117C6.87891 16.5117 6.57031 16.5938 6.30469 16.7578C6.03906 16.9219 5.76953 17.125 5.49609 17.3672C5.23047 17.6016 4.91797 17.8398 4.55859 18.082C4.20703 18.3242 3.76562 18.5273 3.23438 18.6914C2.71094 18.8555 2.0625 18.9375 1.28906 18.9375H1.19531C0.867188 18.9375 0.585938 18.8203 0.351562 18.5859C0.117188 18.3516 0 18.0703 0 17.7422C0 17.4141 0.117188 17.1367 0.351562 16.9102C0.585938 16.6758 0.867188 16.5586 1.19531 16.5586H1.28906C1.79688 16.5586 2.24609 16.4609 2.63672 16.2656C3.02734 16.0703 3.46875 15.7969 3.96094 15.4453C4.35156 15.1641 4.8125 14.875 5.34375 14.5781C5.88281 14.2812 6.51172 14.1328 7.23047 14.1328C7.96484 14.1328 8.60156 14.2852 9.14062 14.5898C9.67969 14.8945 10.1406 15.1914 10.5234 15.4805C10.9375 15.793 11.3164 16.0508 11.6602 16.2539C12.0117 16.457 12.4258 16.5586 12.9023 16.5586C13.3711 16.5586 13.7773 16.457 14.1211 16.2539C14.4727 16.0508 14.8555 15.793 15.2695 15.4805C15.6602 15.1914 16.125 14.8945 16.6641 14.5898C17.2031 14.2852 17.8359 14.1328 18.5625 14.1328C19.2812 14.1328 19.9062 14.2812 20.4375 14.5781C20.9766 14.875 21.4414 15.1641 21.832 15.4453C22.3242 15.7969 22.7617 16.0703 23.1445 16.2656C23.5352 16.4609 23.9883 16.5586 24.5039 16.5586H24.5977C24.9258 16.5586 25.207 16.6758 25.4414 16.9102C25.6758 17.1367 25.793 17.4141 25.793 17.7422C25.793 18.0703 25.6758 18.3516 25.4414 18.5859C25.207 18.8203 24.9258 18.9375 24.5977 18.9375H24.5039C23.7227 18.9375 23.0703 18.8555 22.5469 18.6914C22.0312 18.5273 21.5938 18.3242 21.2344 18.082C20.875 17.8398 20.5586 17.6016 20.2852 17.3672C20.0195 17.125 19.7539 16.9219 19.4883 16.7578C19.2227 16.5938 18.9141 16.5117 18.5625 16.5117C18.2188 16.5117 17.9102 16.5938 17.6367 16.7578C17.3633 16.9219 17.0898 17.125 16.8164 17.3672C16.5508 17.6016 16.2461 17.8398 15.9023 18.082C15.5586 18.3242 15.1445 18.5273 14.6602 18.6914C14.1836 18.8555 13.5977 18.9375 12.9023 18.9375Z" fill="#EBBC01"/>
</svg>
