<svg width="18" height="18" viewBox="0 0 18 18" fill="none" xmlns="http://www.w3.org/2000/svg">
<path style="mix-blend-mode:plus-darker" d="M15.2319 0.373535C15.3813 0.224121 15.5584 0.124512 15.7632 0.074707C15.9679 0.0249023 16.1727 0.0276693 16.3774 0.0830078C16.5877 0.132812 16.7703 0.235189 16.9253 0.390137C17.0802 0.545085 17.1826 0.724935 17.2324 0.929688C17.2878 1.13444 17.2878 1.34196 17.2324 1.55225C17.1826 1.757 17.083 1.93408 16.9336 2.0835L2.0752 16.9419C1.93132 17.0858 1.75423 17.1826 1.54395 17.2324C1.33919 17.2822 1.13167 17.2822 0.921387 17.2324C0.716634 17.1826 0.536784 17.083 0.381836 16.9336C0.226888 16.7786 0.124512 16.596 0.074707 16.3857C0.0249023 16.181 0.0249023 15.9735 0.074707 15.7632C0.124512 15.5584 0.224121 15.3813 0.373535 15.2319L15.2319 0.373535ZM16.9336 15.2319C17.083 15.3813 17.1826 15.5584 17.2324 15.7632C17.2822 15.9679 17.2822 16.1727 17.2324 16.3774C17.1826 16.5877 17.0802 16.7703 16.9253 16.9253C16.7703 17.0802 16.5877 17.1826 16.3774 17.2324C16.1727 17.2878 15.9679 17.2905 15.7632 17.2407C15.5584 17.1909 15.3813 17.0913 15.2319 16.9419L0.373535 2.0752C0.224121 1.93132 0.124512 1.757 0.074707 1.55225C0.0249023 1.34749 0.0249023 1.13997 0.074707 0.929688C0.124512 0.719401 0.226888 0.536784 0.381836 0.381836C0.53125 0.226888 0.7111 0.124512 0.921387 0.074707C1.13167 0.0249023 1.33919 0.0249023 1.54395 0.074707C1.75423 0.124512 1.93132 0.224121 2.0752 0.373535L16.9336 15.2319Z" fill="#999999"/>
</svg>
