<svg width="22" height="22" viewBox="0 0 22 22" fill="none" xmlns="http://www.w3.org/2000/svg">
<path style="mix-blend-mode:plus-darker" d="M10.8076 21.6235C9.61784 21.6235 8.48063 21.4409 7.396 21.0757C6.31689 20.716 5.32633 20.2041 4.42432 19.54C3.52783 18.876 2.74756 18.0929 2.0835 17.1909C1.41943 16.2944 0.904785 15.3066 0.539551 14.2275C0.17985 13.1429 0 12.0057 0 10.8159C0 9.62061 0.17985 8.4834 0.539551 7.4043C0.904785 6.3252 1.41943 5.33464 2.0835 4.43262C2.74756 3.5306 3.52783 2.75033 4.42432 2.0918C5.32633 1.42773 6.31689 0.913086 7.396 0.547852C8.48063 0.182617 9.61784 0 10.8076 0C12.0029 0 13.1401 0.182617 14.2192 0.547852C15.2983 0.913086 16.2889 1.42773 17.1909 2.0918C18.0929 2.75033 18.8732 3.5306 19.5317 4.43262C20.1958 5.33464 20.7104 6.3252 21.0757 7.4043C21.4409 8.4834 21.6235 9.62061 21.6235 10.8159C21.6235 12.0057 21.4409 13.1429 21.0757 14.2275C20.7104 15.3066 20.1958 16.2944 19.5317 17.1909C18.8732 18.0929 18.0929 18.876 17.1909 19.54C16.2889 20.2041 15.2983 20.716 14.2192 21.0757C13.1401 21.4409 12.0029 21.6235 10.8076 21.6235ZM10.8076 20.0796C11.8314 20.0796 12.8053 19.9219 13.7295 19.6064C14.6592 19.2965 15.5086 18.8566 16.2778 18.2866C17.0526 17.7222 17.7222 17.0553 18.2866 16.2861C18.8566 15.5114 19.2965 14.6619 19.6064 13.7378C19.9163 12.8136 20.0713 11.8397 20.0713 10.8159C20.0713 9.79215 19.9163 8.8182 19.6064 7.89404C19.2965 6.96436 18.8566 6.11491 18.2866 5.3457C17.7222 4.57096 17.0526 3.90137 16.2778 3.33691C15.5086 2.76693 14.6592 2.32699 13.7295 2.01709C12.8053 1.70719 11.8314 1.55225 10.8076 1.55225C9.78385 1.55225 8.8099 1.70719 7.88574 2.01709C6.96159 2.32699 6.11214 2.76693 5.3374 3.33691C4.5682 3.90137 3.8986 4.57096 3.32861 5.3457C2.76416 6.11491 2.32422 6.96436 2.00879 7.89404C1.69889 8.8182 1.54395 9.79215 1.54395 10.8159C1.54395 11.8397 1.69889 12.8136 2.00879 13.7378C2.32422 14.6619 2.76416 15.5114 3.32861 16.2861C3.8986 17.0553 4.5682 17.7222 5.3374 18.2866C6.11214 18.8566 6.96159 19.2965 7.88574 19.6064C8.8099 19.9219 9.78385 20.0796 10.8076 20.0796ZM8.75732 15.5889C8.5249 15.5889 8.34505 15.5142 8.21777 15.3647C8.09603 15.2098 8.03516 15.0106 8.03516 14.7671V6.59912C8.03516 6.35563 8.09603 6.15918 8.21777 6.00977C8.33952 5.86035 8.51937 5.78564 8.75732 5.78564C8.99528 5.78564 9.1779 5.85758 9.30518 6.00146C9.43245 6.14535 9.49609 6.34456 9.49609 6.59912V14.3687H13.7295C13.9121 14.3687 14.0615 14.424 14.1777 14.5347C14.2939 14.6398 14.3521 14.7865 14.3521 14.9746C14.3521 15.1628 14.2939 15.3122 14.1777 15.4229C14.0615 15.5335 13.9121 15.5889 13.7295 15.5889H8.75732Z" fill="#404040"/>
</svg>
