<svg width="14" height="24" viewBox="0 0 14 24" fill="none" xmlns="http://www.w3.org/2000/svg">
<path d="M0 11.8672C0 11.694 0.031901 11.5345 0.0957031 11.3887C0.159505 11.2337 0.255208 11.0924 0.382812 10.9648L11.2246 0.355469C11.4707 0.11849 11.7669 0 12.1133 0C12.3503 0 12.5599 0.0546875 12.7422 0.164062C12.9336 0.273438 13.084 0.423828 13.1934 0.615234C13.3118 0.797526 13.3711 1.00716 13.3711 1.24414C13.3711 1.58138 13.248 1.8776 13.002 2.13281L3.04883 11.8672L13.002 21.6016C13.248 21.8568 13.3711 22.153 13.3711 22.4902C13.3711 22.7272 13.3118 22.9368 13.1934 23.1191C13.084 23.3105 12.9336 23.4609 12.7422 23.5703C12.5599 23.6797 12.3503 23.7344 12.1133 23.7344C11.7669 23.7344 11.4707 23.6113 11.2246 23.3652L0.382812 12.7695C0.255208 12.6419 0.159505 12.5052 0.0957031 12.3594C0.031901 12.2044 0 12.0404 0 11.8672Z" fill="black"/>
</svg>
