<svg width="22" height="23" viewBox="0 0 22 23" fill="none" xmlns="http://www.w3.org/2000/svg">
<path d="M0.445312 9.58594L9.26953 0.574219C9.65234 0.191406 10.0742 0 10.5352 0C10.7773 0.0078125 11 0.0585938 11.2031 0.152344C11.4062 0.246094 11.6055 0.386719 11.8008 0.574219L20.6016 9.59766C20.9062 9.89453 21.0586 10.2617 21.0586 10.6992C21.0586 10.9961 20.9883 11.2617 20.8477 11.4961C20.707 11.7305 20.5156 11.9219 20.2734 12.0703C20.0391 12.2109 19.7773 12.2812 19.4883 12.2812C19.0508 12.2812 18.668 12.1172 18.3398 11.7891L10.0078 3.22266H11.0742L2.71875 11.7891C2.39062 12.1172 2.00781 12.2812 1.57031 12.2812C1.28125 12.2812 1.01562 12.2109 0.773438 12.0703C0.539062 11.9219 0.351562 11.7305 0.210938 11.4961C0.0703125 11.2617 0 10.9961 0 10.6992C0 10.4805 0.0351562 10.2812 0.105469 10.1016C0.183594 9.91406 0.296875 9.74219 0.445312 9.58594ZM0.445312 20.0625L9.26953 11.0391C9.65234 10.6641 10.0742 10.4766 10.5352 10.4766C10.7773 10.4844 11 10.5352 11.2031 10.6289C11.4141 10.7148 11.6133 10.8516 11.8008 11.0391L20.6016 20.0625C20.9062 20.3672 21.0586 20.7344 21.0586 21.1641C21.0586 21.4609 20.9883 21.7266 20.8477 21.9609C20.707 22.2031 20.5156 22.3945 20.2734 22.5352C20.0391 22.6836 19.7773 22.7578 19.4883 22.7578C19.0508 22.7578 18.668 22.5898 18.3398 22.2539L10.0078 13.6875H11.0742L2.71875 22.2539C2.39062 22.5898 2.00781 22.7578 1.57031 22.7578C1.28125 22.7578 1.01562 22.6836 0.773438 22.5352C0.539062 22.3945 0.351562 22.2031 0.210938 21.9609C0.0703125 21.7266 0 21.4609 0 21.1641C0 20.9531 0.0351562 20.7539 0.105469 20.5664C0.183594 20.3867 0.296875 20.2188 0.445312 20.0625Z" fill="#EB01AC"/>
</svg>
