<svg width="10" height="17" viewBox="0 0 10 17" fill="none" xmlns="http://www.w3.org/2000/svg">
<path d="M9.97559 8.48145C9.97559 8.68164 9.93652 8.86963 9.8584 9.04541C9.78516 9.22119 9.66309 9.38965 9.49219 9.55078L2.25586 16.5894C2.00684 16.8384 1.70166 16.9629 1.34033 16.9629C1.09131 16.9629 0.866699 16.9043 0.666504 16.7871C0.466309 16.6699 0.305176 16.5112 0.183105 16.311C0.0610352 16.1108 0 15.8862 0 15.6372C0 15.2759 0.141602 14.9536 0.424805 14.6704L6.84082 8.47412L0.424805 2.28516C0.141602 2.00684 0 1.68457 0 1.31836C0 1.07422 0.0610352 0.852051 0.183105 0.651855C0.305176 0.45166 0.466309 0.292969 0.666504 0.175781C0.866699 0.0585938 1.09131 0 1.34033 0C1.70166 0 2.00684 0.124512 2.25586 0.373535L9.49219 7.40479C9.6582 7.56592 9.78027 7.73438 9.8584 7.91016C9.93652 8.08105 9.97559 8.27148 9.97559 8.48145Z" fill="white"/>
</svg>
