<svg width="119" height="119" viewBox="0 0 119 119" fill="none" xmlns="http://www.w3.org/2000/svg">
<path d="M59.1094 11.4844C57.5156 11.4844 56.1562 10.9375 55.0312 9.84375C53.9062 8.71875 53.3438 7.35938 53.3438 5.76562C53.3438 4.14062 53.9062 2.78125 55.0312 1.6875C56.1562 0.5625 57.5156 0 59.1094 0C60.7031 0 62.0625 0.5625 63.1875 1.6875C64.3125 2.78125 64.875 4.14062 64.875 5.76562C64.875 7.35938 64.3125 8.71875 63.1875 9.84375C62.0625 10.9375 60.7031 11.4844 59.1094 11.4844ZM96.8438 27.0938C95.25 27.0938 93.8906 26.5469 92.7656 25.4531C91.6719 24.3281 91.125 22.9531 91.125 21.3281C91.125 19.7344 91.6719 18.375 92.7656 17.25C93.8906 16.125 95.25 15.5625 96.8438 15.5625C98.4688 15.5625 99.8281 16.125 100.922 17.25C102.047 18.375 102.609 19.7344 102.609 21.3281C102.609 22.9531 102.047 24.3281 100.922 25.4531C99.8281 26.5469 98.4688 27.0938 96.8438 27.0938ZM112.453 64.8281C110.859 64.8281 109.5 64.2812 108.375 63.1875C107.25 62.0625 106.688 60.7031 106.688 59.1094C106.688 57.4844 107.25 56.125 108.375 55.0312C109.5 53.9062 110.859 53.3438 112.453 53.3438C114.047 53.3438 115.406 53.9062 116.531 55.0312C117.656 56.125 118.219 57.4844 118.219 59.1094C118.219 60.7031 117.656 62.0625 116.531 63.1875C115.406 64.2812 114.047 64.8281 112.453 64.8281ZM96.8438 102.609C95.25 102.609 93.8906 102.047 92.7656 100.922C91.6719 99.7969 91.125 98.4375 91.125 96.8438C91.125 95.25 91.6719 93.8906 92.7656 92.7656C93.8906 91.6406 95.25 91.0781 96.8438 91.0781C98.4688 91.0781 99.8281 91.6406 100.922 92.7656C102.047 93.8906 102.609 95.25 102.609 96.8438C102.609 98.4375 102.047 99.7969 100.922 100.922C99.8281 102.047 98.4688 102.609 96.8438 102.609ZM59.1094 118.219C57.5156 118.219 56.1562 117.656 55.0312 116.531C53.9062 115.406 53.3438 114.047 53.3438 112.453C53.3438 110.859 53.9062 109.5 55.0312 108.375C56.1562 107.25 57.5156 106.688 59.1094 106.688C60.7031 106.688 62.0625 107.25 63.1875 108.375C64.3125 109.5 64.875 110.859 64.875 112.453C64.875 114.047 64.3125 115.406 63.1875 116.531C62.0625 117.656 60.7031 118.219 59.1094 118.219ZM21.375 102.609C19.75 102.609 18.375 102.047 17.25 100.922C16.1562 99.7969 15.6094 98.4375 15.6094 96.8438C15.6094 95.25 16.1562 93.8906 17.25 92.7656C18.375 91.6406 19.75 91.0781 21.375 91.0781C22.9688 91.0781 24.3125 91.6406 25.4062 92.7656C26.5312 93.8906 27.0938 95.25 27.0938 96.8438C27.0938 98.4375 26.5312 99.7969 25.4062 100.922C24.3125 102.047 22.9688 102.609 21.375 102.609ZM5.76562 64.8281C4.17188 64.8281 2.8125 64.2812 1.6875 63.1875C0.5625 62.0625 0 60.7031 0 59.1094C0 57.4844 0.5625 56.125 1.6875 55.0312C2.8125 53.9062 4.17188 53.3438 5.76562 53.3438C7.35938 53.3438 8.71875 53.9062 9.84375 55.0312C10.9688 56.125 11.5312 57.4844 11.5312 59.1094C11.5312 60.7031 10.9688 62.0625 9.84375 63.1875C8.71875 64.2812 7.35938 64.8281 5.76562 64.8281ZM21.375 27.0938C19.75 27.0938 18.375 26.5469 17.25 25.4531C16.1562 24.3281 15.6094 22.9531 15.6094 21.3281C15.6094 19.7344 16.1562 18.375 17.25 17.25C18.375 16.125 19.75 15.5625 21.375 15.5625C22.9688 15.5625 24.3125 16.125 25.4062 17.25C26.5312 18.375 27.0938 19.7344 27.0938 21.3281C27.0938 22.9531 26.5312 24.3281 25.4062 25.4531C24.3125 26.5469 22.9688 27.0938 21.375 27.0938ZM59.1094 89.25C54.9531 89.25 51.0469 88.4688 47.3906 86.9062C43.7656 85.3438 40.5625 83.1875 37.7812 80.4375C35.0312 77.6562 32.8594 74.4531 31.2656 70.8281C29.7031 67.1719 28.9219 63.2656 28.9219 59.1094C28.9219 54.9531 29.7031 51.0469 31.2656 47.3906C32.8594 43.7344 35.0312 40.5312 37.7812 37.7812C40.5625 35 43.7656 32.8281 47.3906 31.2656C51.0469 29.7031 54.9531 28.9219 59.1094 28.9219C63.2656 28.9219 67.1562 29.7031 70.7812 31.2656C74.4375 32.8281 77.6406 35 80.3906 37.7812C83.1719 40.5312 85.3438 43.7344 86.9062 47.3906C88.5 51.0469 89.2969 54.9531 89.2969 59.1094C89.2969 63.2656 88.5 67.1719 86.9062 70.8281C85.3438 74.4531 83.1719 77.6562 80.3906 80.4375C77.6406 83.1875 74.4375 85.3438 70.7812 86.9062C67.1562 88.4688 63.2656 89.25 59.1094 89.25ZM59.1094 81.375C63.2344 81.375 66.9688 80.375 70.3125 78.375C73.6875 76.375 76.375 73.6875 78.375 70.3125C80.375 66.9375 81.375 63.2031 81.375 59.1094C81.375 54.9844 80.375 51.2344 78.375 47.8594C76.375 44.4844 73.6875 41.7969 70.3125 39.7969C66.9688 37.7969 63.2344 36.7969 59.1094 36.7969C54.9844 36.7969 51.2344 37.7969 47.8594 39.7969C44.5156 41.7969 41.8438 44.4844 39.8438 47.8594C37.8438 51.2344 36.8438 54.9844 36.8438 59.1094C36.8438 63.2031 37.8438 66.9375 39.8438 70.3125C41.8438 73.6875 44.5156 76.375 47.8594 78.375C51.2344 80.375 54.9844 81.375 59.1094 81.375Z" fill="#EBBC01"/>
</svg>
