<svg width="46" height="29" viewBox="0 0 46 29" fill="none" xmlns="http://www.w3.org/2000/svg">
<path d="M22.5703 20.6543C24.4453 20.6543 26.25 20.9648 27.9844 21.5859C29.7305 22.1953 31.3301 23.0801 32.7832 24.2402C33.2988 24.6504 33.627 25.1074 33.7676 25.6113C33.9082 26.1035 33.8965 26.584 33.7324 27.0527C33.5801 27.5098 33.3223 27.8848 32.959 28.1777C32.5957 28.4824 32.1738 28.6465 31.6934 28.6699C31.2129 28.7051 30.7207 28.541 30.2168 28.1777C28.8457 27.1465 27.5742 26.4258 26.4023 26.0156C25.2305 25.5938 23.9531 25.3828 22.5703 25.3828C21.1875 25.3828 19.9102 25.5938 18.7383 26.0156C17.5664 26.4258 16.2949 27.1465 14.9238 28.1777C14.4199 28.541 13.9277 28.7051 13.4473 28.6699C12.9668 28.6465 12.5449 28.4824 12.1816 28.1777C11.8184 27.873 11.5605 27.4922 11.4082 27.0352C11.2559 26.5781 11.2441 26.1035 11.373 25.6113C11.5137 25.1074 11.8418 24.6504 12.3574 24.2402C13.8105 23.0801 15.4043 22.1953 17.1387 21.5859C18.8848 20.9648 20.6953 20.6543 22.5703 20.6543ZM22.5703 10.3359C25.5 10.3359 28.3125 10.7871 31.0078 11.6895C33.7148 12.5918 36.1758 13.8867 38.3906 15.5742C38.9883 16.0312 39.3633 16.5293 39.5156 17.0684C39.6797 17.5957 39.6797 18.0996 39.5156 18.5801C39.3516 19.0605 39.0762 19.4531 38.6895 19.7578C38.3027 20.0508 37.8516 20.2031 37.3359 20.2148C36.832 20.2148 36.3223 20.0039 35.8066 19.582C33.9551 18.1055 31.9043 16.9863 29.6543 16.2246C27.416 15.4512 25.0547 15.0645 22.5703 15.0645C20.0859 15.0645 17.7188 15.4512 15.4688 16.2246C13.2305 16.9863 11.1914 18.1055 9.35156 19.582C8.82422 20.0039 8.30859 20.2148 7.80469 20.2148C7.30078 20.2031 6.85547 20.0508 6.46875 19.7578C6.08203 19.4531 5.80664 19.0605 5.64258 18.5801C5.47852 18.0996 5.47266 17.5957 5.625 17.0684C5.78906 16.5293 6.16406 16.0312 6.75 15.5742C8.96484 13.8867 11.4199 12.5918 14.1152 11.6895C16.8223 10.7871 19.6406 10.3359 22.5703 10.3359ZM22.5703 0C26.5078 0 30.293 0.609375 33.9258 1.82812C37.5586 3.03516 40.8984 4.78711 43.9453 7.08398C44.4844 7.49414 44.8242 7.95703 44.9648 8.47266C45.1172 8.98828 45.1172 9.48633 44.9648 9.9668C44.8125 10.4473 44.5488 10.8398 44.1738 11.1445C43.8105 11.4492 43.377 11.6133 42.873 11.6367C42.3691 11.6484 41.8477 11.4375 41.3086 11.0039C38.6367 8.94141 35.7188 7.38281 32.5547 6.32812C29.3906 5.26172 26.0625 4.72852 22.5703 4.72852C19.0781 4.72852 15.75 5.25586 12.5859 6.31055C9.43359 7.36523 6.5332 8.91211 3.88477 10.9512C3.35742 11.373 2.8418 11.5781 2.33789 11.5664C1.83398 11.5547 1.39453 11.3965 1.01953 11.0918C0.644531 10.7871 0.380859 10.4004 0.228516 9.93164C0.0761719 9.46289 0.0761719 8.96484 0.228516 8.4375C0.380859 7.91016 0.738281 7.42969 1.30078 6.99609C4.30078 4.74609 7.61133 3.01758 11.2324 1.81055C14.8535 0.603516 18.6328 0 22.5703 0Z" fill="#99B004"/>
</svg>
